<?xml version="1.0" encoding="UTF-8"?>
<svg version="1.1" xmlns="http://www.w3.org/2000/svg" width="225" height="225">
<path d="M0 0 C74.25 0 148.5 0 225 0 C225 74.25 225 148.5 225 225 C150.75 225 76.5 225 0 225 C0 150.75 0 76.5 0 0 Z " fill="#FEFDFD" transform="translate(0,0)"/>
<path d="M0 0 C74.25 0 148.5 0 225 0 C225 74.25 225 148.5 225 225 C150.75 225 76.5 225 0 225 C0 150.75 0 76.5 0 0 Z M40 28 C39.4121875 28.33515625 38.824375 28.6703125 38.21875 29.015625 C28.44806711 35.10087487 24.61491396 45.27322929 22 56 C21.82333801 56.69256393 21.64667603 57.38512787 21.46466064 58.09867859 C20.80703602 62.20485895 20.84412633 66.24923342 20.83886719 70.40161133 C20.83390228 71.34224426 20.82893738 72.2828772 20.82382202 73.25201416 C20.80922867 76.36202737 20.80240008 79.47198943 20.796875 82.58203125 C20.79111752 84.75615946 20.78535986 86.93028768 20.77960205 89.10441589 C20.76909752 93.66816442 20.76325248 98.23189538 20.75976562 102.7956543 C20.7543078 108.60419584 20.73033576 114.41249979 20.70179367 120.22096729 C20.68303084 124.71753074 20.6779543 129.21403878 20.67642975 133.71063805 C20.67342909 135.8493548 20.66548965 137.98807119 20.65224457 140.12674904 C20.1097274 166.9212205 20.1097274 166.9212205 32 190 C32.66 190 33.32 190 34 190 C34.37318359 190.89525391 34.37318359 190.89525391 34.75390625 191.80859375 C37.93948398 197.41081665 44.60776442 200.12062527 50.5625 201.8125 C58.15980147 203.72049809 65.67586896 204.15081112 73.46679688 204.16113281 C74.37860718 204.16609772 75.29041748 204.17106262 76.2298584 204.17617798 C79.2261635 204.1906996 82.22241559 204.19758631 85.21875 204.203125 C86.7664785 204.20736607 86.7664785 204.20736607 88.34547424 204.21169281 C93.81039686 204.22664807 99.27529334 204.23589955 104.74023438 204.24023438 C110.34354953 204.24570083 115.94661948 204.26970089 121.54985809 204.29820633 C125.89457869 204.316971 130.23924197 204.3220457 134.58399963 204.32357025 C136.64735752 204.32656828 138.71071511 204.33449845 140.77403259 204.34775543 C158.33331433 204.45248624 176.61014084 204.40901409 190.875 192.625 C191.57625 191.75875 192.2775 190.8925 193 190 C193.48855469 189.46117187 193.97710937 188.92234375 194.48046875 188.3671875 C202.92324722 178.40262427 204.14489555 165.04306302 204.16113281 152.46313477 C204.16609772 151.53196335 204.17106262 150.60079193 204.17617798 149.6414032 C204.19072544 146.57472987 204.19759118 143.50810836 204.203125 140.44140625 C204.20595238 139.38660505 204.20877975 138.33180386 204.21169281 137.24503899 C204.22665976 131.65692776 204.23590346 126.06884216 204.24023438 120.48071289 C204.2456982 114.74845594 204.26968925 109.016439 204.29820633 103.28425694 C204.31696818 98.84259898 204.32204559 94.40099711 204.32357025 89.9593029 C204.32656963 87.84849684 204.33450455 85.73769111 204.34775543 83.62692451 C204.52156492 55.65338282 204.52156492 55.65338282 191 32 C177.20472136 19.62055259 157.33835937 20.68608647 140.05078125 20.69921875 C137.90764789 20.69532387 135.76451529 20.69098759 133.62138367 20.68623352 C129.14054864 20.6787981 124.65979243 20.67904242 120.17895508 20.68432617 C114.4781794 20.69010717 108.77773007 20.67320959 103.07700825 20.6499815 C98.65250305 20.63514149 94.2280745 20.6343865 89.80354881 20.63749123 C87.70391381 20.63698283 85.60427396 20.63183719 83.50466347 20.62167931 C60.83378366 20.19504577 60.83378366 20.19504577 40 28 Z " fill="#DF466F" transform="translate(0,0)"/>
<path d="M0 0 C12.09626171 8.97464578 19.51200133 21.39604784 23.12109375 35.8984375 C25.60305334 52.65166476 21.260273 68.90427238 11.60546875 82.63671875 C1.57977311 95.18182495 -12.80732632 102.53428799 -28.62548828 104.59912109 C-44.97234278 105.98629178 -59.51978216 100.58044583 -72.26953125 90.51171875 C-73.01203125 89.78984375 -73.75453125 89.06796875 -74.51953125 88.32421875 C-74.51953125 87.66421875 -74.51953125 87.00421875 -74.51953125 86.32421875 C-76.00453125 85.82921875 -76.00453125 85.82921875 -77.51953125 85.32421875 C-79.13320691 83.26774811 -80.55689463 81.26920037 -81.95703125 79.07421875 C-82.35664062 78.4517627 -82.75625 77.82930664 -83.16796875 77.18798828 C-86.83334609 71.23775891 -88.89501965 65.11235651 -90.51953125 58.32421875 C-90.80376953 57.380625 -90.80376953 57.380625 -91.09375 56.41796875 C-94.05216889 41.87014741 -90.09071655 27.36311523 -82.37109375 15.01171875 C-73.54262773 2.19740521 -60.79160668 -6.54187967 -45.5546875 -10.203125 C-29.26189217 -12.74035568 -13.75242897 -9.14696438 0 0 Z " fill="#EE1976" transform="translate(146.51953125,65.67578125)"/>
<path d="M0 0 C74.25 0 148.5 0 225 0 C225 74.25 225 148.5 225 225 C150.75 225 76.5 225 0 225 C0 150.75 0 76.5 0 0 Z M18.28515625 19.5234375 C1.69770912 37.50026054 0.52539498 60.56743167 0.63671875 83.65625 C0.63723901 85.81465657 0.63671492 87.97306362 0.63520813 90.13146973 C0.63529724 94.62954898 0.64560065 99.12744675 0.66381836 103.62548828 C0.68650284 109.34736982 0.68704272 115.06898703 0.68030071 120.79090118 C0.67693507 125.24027798 0.68363933 129.68959618 0.69342995 134.13896179 C0.69723762 136.24696037 0.69844892 138.35496551 0.6968441 140.46296692 C0.69384995 163.9757062 1.3986673 187.75793297 18.64453125 205.87109375 C36.70783939 222.19696926 57.49600402 224.47860486 80.8828125 224.36328125 C82.98965454 224.36276101 85.09649706 224.36328502 87.20333862 224.36479187 C91.60243047 224.36470263 96.00133724 224.3543781 100.40039062 224.33618164 C105.98069131 224.31358112 111.56072036 224.31294067 117.14105415 224.31969929 C121.489373 224.32307652 125.83763233 224.31633806 130.18593979 224.30657005 C132.24039268 224.30277573 134.29485226 224.30154526 136.34930801 224.3031559 C146.56546609 224.30449466 156.70583272 224.10678128 166.88232422 223.14916992 C167.67727861 223.07762097 168.47223301 223.00607203 169.29127693 222.93235493 C185.18305231 221.24975579 199.76068503 213.66660898 210.06640625 201.46875 C224.17376328 183.45693254 224.47325598 161.35429155 224.43359375 139.44140625 C224.43816891 137.1995376 224.44347838 134.95767034 224.44947815 132.71580505 C224.45835304 128.04379537 224.45605033 123.37195714 224.44604492 118.69995117 C224.43455657 112.76179488 224.45479439 106.82423342 224.48396206 100.88615513 C224.50245113 96.26426031 224.50200656 91.64250478 224.49632454 87.0205822 C224.49617291 84.83328351 224.50208373 82.64597441 224.51461601 80.45871162 C224.63087498 56.85165437 221.41701863 35.98480892 205.03125 17.91015625 C187.37850738 1.30978867 163.68234069 0.53135248 140.94921875 0.671875 C138.75641511 0.6749414 136.5636095 0.67681081 134.37080383 0.67755127 C129.80466091 0.68212203 125.23869753 0.69642523 120.67260742 0.71875 C114.8449102 0.74711359 109.01735304 0.75797432 103.18959332 0.7624321 C97.58861747 0.76760493 91.987676 0.78211908 86.38671875 0.796875 C85.33298254 0.79875572 84.27924633 0.80063644 83.19357872 0.80257416 C80.18719281 0.8095117 77.18091204 0.8231762 74.17456055 0.83886719 C72.8689769 0.84054398 72.8689769 0.84054398 71.53701782 0.84225464 C51.60934487 0.97878926 33.11783947 5.46647305 18.28515625 19.5234375 Z " fill="#FDFCFD" transform="translate(0,0)"/>
<path d="M0 0 C8.98506317 6.31196376 15.60040215 14.77614621 17.78515625 25.6796875 C18.83986367 36.39250148 17.07813902 45.69726095 10.73046875 54.54296875 C2.75066834 63.86193982 -5.74052668 68.58082753 -17.9765625 70 C-29.17896096 70.47941791 -38.61400619 66.01880986 -46.77734375 58.5546875 C-53.95140698 51.14254695 -57.14502392 41.49760048 -57.58984375 31.3671875 C-57.35285537 20.67308665 -52.65794779 12.29540583 -45.3671875 4.7734375 C-32.70620685 -7.10724414 -14.97646932 -8.92777184 0 0 Z " fill="#FEFDFE" transform="translate(132.21484375,80.3203125)"/>
<path d="M0 0 C0.95126266 -0.0049649 1.90252533 -0.00992981 2.88261414 -0.01504517 C5.99246984 -0.02950713 9.10227457 -0.03644163 12.2121582 -0.04199219 C13.28535624 -0.04481956 14.35855427 -0.04764694 15.46427345 -0.05056 C21.14317693 -0.0654871 26.82205543 -0.07475763 32.50097656 -0.07910156 C38.32279654 -0.08457863 44.14438179 -0.10860952 49.96612835 -0.13707352 C54.48326763 -0.15582489 59.00035173 -0.16091209 63.51752663 -0.16243744 C65.66182552 -0.16543601 67.80612411 -0.17336809 69.95038414 -0.18662262 C92.11857174 -0.31388441 114.14715502 1.61728992 131.30200195 17.44628906 C144.60623775 31.48470509 150.23516258 49.84312548 149.89575195 68.92285156 C149.87254883 69.66148438 149.8493457 70.40011719 149.82543945 71.16113281 C148.17543945 71.16113281 146.52543945 71.16113281 144.82543945 71.16113281 C143.17717834 68.19426281 142.38272858 65.50486757 141.82543945 62.16113281 C142.15543945 62.16113281 142.48543945 62.16113281 142.82543945 62.16113281 C142.85230498 60.18203884 142.87177321 58.2028431 142.88793945 56.22363281 C142.9053418 54.57041016 142.9053418 54.57041016 142.9230957 52.88378906 C143.13806517 50.24665647 143.13806517 50.24665647 141.82543945 49.16113281 C141.75338434 47.47504315 141.74157878 45.78612622 141.76293945 44.09863281 C141.77196289 43.17953125 141.78098633 42.26042969 141.7902832 41.31347656 C141.80768555 40.24806641 141.80768555 40.24806641 141.82543945 39.16113281 C139.51543945 39.16113281 137.20543945 39.16113281 134.82543945 39.16113281 C133.38336004 36.27697399 133.73149058 33.74391753 133.76293945 30.53613281 C133.77196289 29.34761719 133.78098633 28.15910156 133.7902832 26.93457031 C133.80768555 25.56171875 133.80768555 25.56171875 133.82543945 24.16113281 C131.18543945 23.83113281 128.54543945 23.50113281 125.82543945 23.16113281 C125.82543945 20.52113281 125.82543945 17.88113281 125.82543945 15.16113281 C120.54543945 15.16113281 115.26543945 15.16113281 109.82543945 15.16113281 C109.82543945 12.52113281 109.82543945 9.88113281 109.82543945 7.16113281 C93.98543945 7.16113281 78.14543945 7.16113281 61.82543945 7.16113281 C61.82543945 6.50113281 61.82543945 5.84113281 61.82543945 5.16113281 C58.19543945 5.16113281 54.56543945 5.16113281 50.82543945 5.16113281 C50.82543945 5.82113281 50.82543945 6.48113281 50.82543945 7.16113281 C50.01800293 7.155896 49.21056641 7.15065918 48.37866211 7.14526367 C44.73592908 7.12453352 41.09320843 7.11148532 37.45043945 7.09863281 C36.17942383 7.09025391 34.9084082 7.081875 33.59887695 7.07324219 C32.3871582 7.07001953 31.17543945 7.06679687 29.92700195 7.06347656 C28.80632324 7.05823975 27.68564453 7.05300293 26.53100586 7.04760742 C23.85676602 6.97491815 23.85676602 6.97491815 21.82543945 8.16113281 C19.50632428 8.0719289 17.18967064 7.91638282 14.8762207 7.73144531 C6.37905032 7.11719787 -2.08097947 7.00791703 -10.59765625 7.03076172 C-13.03025248 7.0362299 -15.46267222 7.03071925 -17.89526367 7.02441406 C-19.45320678 7.02507321 -21.01114979 7.02635098 -22.5690918 7.02832031 C-23.29087112 7.02629608 -24.01265045 7.02427185 -24.75630188 7.02218628 C-27.83863808 7.03671214 -30.22645743 7.17843177 -33.17456055 8.16113281 C-33.50456055 8.82113281 -33.83456055 9.48113281 -34.17456055 10.16113281 C-35.49456055 10.16113281 -36.81456055 10.16113281 -38.17456055 10.16113281 C-38.17456055 10.82113281 -38.17456055 11.48113281 -38.17456055 12.16113281 C-36.85456055 12.16113281 -35.53456055 12.16113281 -34.17456055 12.16113281 C-34.17456055 12.82113281 -34.17456055 13.48113281 -34.17456055 14.16113281 C-39.11717872 15.31441039 -44.13117393 15.70086258 -49.17456055 16.16113281 C-49.50456055 18.47113281 -49.83456055 20.78113281 -50.17456055 23.16113281 C-42.25456055 23.16113281 -34.33456055 23.16113281 -26.17456055 23.16113281 C-28.21677968 25.20335194 -30.02506768 26.28566162 -32.54956055 27.66113281 C-33.70584961 28.29535156 -33.70584961 28.29535156 -34.88549805 28.94238281 C-37.17456055 30.16113281 -37.17456055 30.16113281 -39.33862305 31.06738281 C-41.65360417 32.4465205 -42.11876507 33.71903197 -43.17456055 36.16113281 C-43.9640711 37.24603848 -44.75586727 38.32928338 -45.54956055 39.41113281 C-52.5714001 50.74415029 -52.87264526 65.22004977 -53.36206055 78.16113281 C-53.46370078 80.46805072 -53.56995492 82.77469806 -53.67854309 85.08129883 C-53.74370307 86.49692911 -53.80423462 87.91278431 -53.8589325 89.32885742 C-54.05343933 93.99093964 -54.54861628 98.5419406 -55.17456055 103.16113281 C-55.83456055 103.16113281 -56.49456055 103.16113281 -57.17456055 103.16113281 C-57.76564688 95.14980198 -58.31557288 87.1988356 -58.17456055 79.16113281 C-61.63956055 79.65613281 -61.63956055 79.65613281 -65.17456055 80.16113281 C-65.50456055 85.11113281 -65.83456055 90.06113281 -66.17456055 95.16113281 C-68.15456055 95.16113281 -70.13456055 95.16113281 -72.17456055 95.16113281 C-75.89760728 70.66108333 -74.27455112 44.74733674 -60.15893555 23.75488281 C-50.8444466 11.58003899 -36.12413984 3.96585007 -21.17456055 1.16113281 C-14.12345393 0.2867755 -7.09860087 0.00911688 0 0 Z " fill="#7936F6" transform="translate(74.174560546875,0.8388671875)"/>
<path d="M0 0 C8.5897362 -0.07009413 17.17934915 -0.12310827 25.76930237 -0.15543652 C29.75971719 -0.1709672 33.74993366 -0.19196901 37.74023438 -0.22631836 C41.60470474 -0.25936916 45.46898665 -0.27694716 49.33358765 -0.28463173 C50.79408732 -0.29009458 52.25457891 -0.30075651 53.71499634 -0.31719017 C73.84939844 -0.53435329 94.14891906 3.1421414 109.4765625 17.28515625 C122.78079829 31.32357228 128.40972313 49.68199267 128.0703125 68.76171875 C128.04710937 69.50035156 128.02390625 70.23898438 128 71 C126.35 71 124.7 71 123 71 C121.35173889 68.03312999 120.55728913 65.34373475 120 62 C120.33 62 120.66 62 121 62 C121.02686553 60.02090602 121.04633375 58.04171029 121.0625 56.0625 C121.07410156 54.96035156 121.08570313 53.85820313 121.09765625 52.72265625 C121.31262571 50.08552366 121.31262571 50.08552366 120 49 C119.92794489 47.31391034 119.91613932 45.62499341 119.9375 43.9375 C119.94652344 43.01839844 119.95554687 42.09929688 119.96484375 41.15234375 C119.97644531 40.44207031 119.98804688 39.73179688 120 39 C117.69 39 115.38 39 113 39 C111.55792059 36.11584117 111.90605113 33.58278472 111.9375 30.375 C111.94652344 29.18648437 111.95554687 27.99796875 111.96484375 26.7734375 C111.97644531 25.85820312 111.98804688 24.94296875 112 24 C109.36 23.67 106.72 23.34 104 23 C104 20.36 104 17.72 104 15 C98.72 15 93.44 15 88 15 C88 12.36 88 9.72 88 7 C72.16 7 56.32 7 40 7 C40 6.34 40 5.68 40 5 C36.37 5 32.74 5 29 5 C29 5.66 29 6.32 29 7 C25.66668561 7.02937438 22.33340517 7.04692334 19 7.0625 C18.06542969 7.07087891 17.13085938 7.07925781 16.16796875 7.08789062 C10.67725599 7.10708892 5.43133519 6.8134193 0 6 C0 5.67 0 5.34 0 5 C7.92 4.505 7.92 4.505 16 4 C16 3.01 16 2.02 16 1 C10.72 1 5.44 1 0 1 C0 0.67 0 0.34 0 0 Z " fill="#AA0DF2" transform="translate(96,1)"/>
<path d="M0 0 C4.41661151 -0.05804281 8.83312496 -0.09361104 13.25 -0.125 C14.50425781 -0.14175781 15.75851563 -0.15851562 17.05078125 -0.17578125 C18.25605469 -0.18222656 19.46132812 -0.18867188 20.703125 -0.1953125 C21.81333008 -0.20578613 22.92353516 -0.21625977 24.06738281 -0.22705078 C26.93950942 -0.00468334 28.57223735 0.50718425 31 2 C31 1.34 31 0.68 31 0 C63.01 0 95.02 0 128 0 C128 2.64 128 5.28 128 8 C127.24741913 7.85870667 126.49483826 7.71741333 125.7194519 7.57183838 C114.38917396 5.68226437 103.21527634 5.70864534 91.7578125 5.734375 C89.61896725 5.73302411 87.48012229 5.73108007 85.34127808 5.72857666 C80.87836762 5.72564406 76.41553774 5.72986178 71.95263672 5.73925781 C66.27554957 5.75063718 60.59865191 5.74409042 54.92157173 5.73211288 C50.5099448 5.72483177 46.09836161 5.72721092 41.68673325 5.73236847 C39.59547782 5.73368847 37.50421823 5.73211619 35.41296768 5.72740936 C23.43644909 5.70636512 11.84529144 6.12763282 0 8 C0 5.36 0 2.72 0 0 Z " fill="#B01DEF" transform="translate(48,16)"/>
<path d="M0 0 C0.33 0 0.66 0 1 0 C1 1.65 1 3.3 1 5 C3.64 5 6.28 5 9 5 C9 4.01 9 3.02 9 2 C9.99 2 10.98 2 12 2 C12.33 2.99 12.66 3.98 13 5 C13.33 4.34 13.66 3.68 14 3 C14.66 3 15.32 3 16 3 C15.8453125 3.9887915 15.690625 4.97758301 15.53125 5.99633789 C14.96008109 10.00514172 14.70342487 14.01665144 14.5 18.05859375 C14.45939453 18.8065773 14.41878906 19.55456085 14.37695312 20.32521057 C14.24838311 22.69582831 14.12372725 25.06662491 14 27.4375 C13.83660962 30.56138361 13.66935107 33.68502829 13.5 36.80859375 C13.46455078 37.51092636 13.42910156 38.21325897 13.39257812 38.93687439 C13.1363637 43.66198673 12.63031609 48.30972602 12 53 C11.34 53 10.68 53 10 53 C9.40891367 44.98866917 8.85898767 37.03770278 9 29 C6.69 29.33 4.38 29.66 2 30 C1.67 34.95 1.34 39.9 1 45 C-0.98 45 -2.96 45 -5 45 C-5.88902912 38.95180188 -6.12348383 33.10776514 -6.0625 27 C-6.05798828 26.12988281 -6.05347656 25.25976562 -6.04882812 24.36328125 C-6.0371736 22.24215707 -6.01924357 20.1210689 -6 18 C-4.35 17.34 -2.7 16.68 -1 16 C-0.67 10.72 -0.34 5.44 0 0 Z " fill="#C10EC0" transform="translate(7,51)"/>
<path d="M0 0 C3.34087054 3.43913144 4.43587159 6.28041524 4.5625 11.0625 C4.48886753 14.62841552 4.15420481 16.85736745 1.9375 19.6875 C-1.89691682 23.09587051 -4.24897128 24.01011505 -9.3125 24.5625 C-14.28133123 24.03946513 -17.20938284 22.03862429 -20.5234375 18.35546875 C-22.89508041 14.55124384 -22.39557393 10.52092622 -21.875 6.1875 C-20.03357427 1.86014955 -17.45140268 -0.70832742 -13.125 -2.5625 C-8.11343225 -3.11934086 -4.21887576 -2.65972602 0 0 Z " fill="#C207D8" transform="translate(180.875,41.8125)"/>
<path d="M0 0 C16 0 32 0 48 0 C48 2.64 48 5.28 48 8 C50.64 8 53.28 8 56 8 C56 10.31 56 12.62 56 15 C58.64 15.33 61.28 15.66 64 16 C64.02725341 17.7290774 64.04650987 19.45828176 64.0625 21.1875 C64.07410156 22.15042969 64.08570313 23.11335938 64.09765625 24.10546875 C64.00486622 26.85576513 63.62111685 29.32479591 63 32 C59.48507998 29.65671998 58.94736765 28.11250567 57.25 24.3125 C52.23794551 14.01746915 45.23154448 8.92043143 34.75 4.6875 C24.79718319 2.86281692 14.35668952 3.00643045 5.59375 8.51171875 C-0.5901344 13.09809968 -6.70474954 18.4256735 -9 26 C-9.66 24.68 -10.32 23.36 -11 22 C-11.33 22.66 -11.66 23.32 -12 24 C-13.32 24 -14.64 24 -16 24 C-16 21.36 -16 18.72 -16 16 C-13.36 15.67 -10.72 15.34 -8 15 C-8 12.69 -8 10.38 -8 8 C-5.36 8 -2.72 8 0 8 C0 5.36 0 2.72 0 0 Z " fill="#DE05AE" transform="translate(88,72)"/>
<path d="M0 0 C2.31 0 4.62 0 7 0 C7 1.32 7 2.64 7 4 C7.66 4 8.32 4 9 4 C10.81567764 10.80879114 8.67529847 15.65047186 6 22 C5.34 22 4.68 22 4 22 C4 23.98 4 25.96 4 28 C2.5393715 25.35261084 2 24.10551666 2 21 C1.01 21 0.02 21 -1 21 C-1 21.99 -1 22.98 -1 24 C-3.64 24 -6.28 24 -9 24 C-9.33 29.28 -9.66 34.56 -10 40 C-10.66 38.68 -11.32 37.36 -12 36 C-13.98 36.495 -13.98 36.495 -16 37 C-15.72369941 26.36242736 -14.4109816 17.15361965 -11 7 C-7.28125 5.8828125 -7.28125 5.8828125 -4.75 6.9375 C-4.1725 7.288125 -3.595 7.63875 -3 8 C-2.67 7.01 -2.34 6.02 -2 5 C-1.3400321 3.33066942 -0.67441131 1.6635479 0 0 Z " fill="#A119E0" transform="translate(17,32)"/>
<path d="M0 0 C0.33 0 0.66 0 1 0 C1.21914062 0.845625 1.43828125 1.69125 1.6640625 2.5625 C4.5927829 13.03922337 8.88527748 20.78206176 18 27 C28.17669399 32.39882241 37.48146298 33.51529642 48.6875 30.375 C53.61535865 28.73432668 57.31338184 26.71887298 61.27734375 23.39453125 C63.64302841 21.47945319 66.2357906 20.24389423 69 19 C69 21.64 69 24.28 69 27 C66.69 27 64.38 27 62 27 C61.67 29.64 61.34 32.28 61 35 C45 35 29 35 13 35 C13 34.01 13 33.02 13 32 C13.66 32 14.32 32 15 32 C14.34 31.34 13.68 30.68 13 30 C13 29.01 13 28.02 13 27 C9.04 27.495 9.04 27.495 5 28 C5 25.03 5 22.06 5 19 C2.36 19 -0.28 19 -3 19 C-3.08226668 15.95613276 -2.97608217 13.92824652 -2 11 C-2.165 10.360625 -2.33 9.72125 -2.5 9.0625 C-3.07702481 6.68227266 -2.74022853 5.30293321 -2 3 C-1.34 3 -0.68 3 0 3 C0 2.01 0 1.02 0 0 Z " fill="#F93535" transform="translate(75,117)"/>
<path d="M0 0 C10.12380142 1.20062652 17.5918119 7.76054371 24 15.3359375 C34.69363797 29.58019745 38.55096192 46.46104564 38 64 C36.35 64 34.7 64 33 64 C31.35173889 61.03312999 30.55728913 58.34373475 30 55 C30.33 55 30.66 55 31 55 C31.02686553 53.02090602 31.04633375 51.04171029 31.0625 49.0625 C31.07410156 47.96035156 31.08570313 46.85820313 31.09765625 45.72265625 C31.31262571 43.08552366 31.31262571 43.08552366 30 42 C29.92794489 40.31391034 29.91613932 38.62499341 29.9375 36.9375 C29.94652344 36.01839844 29.95554688 35.09929688 29.96484375 34.15234375 C29.97644531 33.44207031 29.98804688 32.73179688 30 32 C27.69 32 25.38 32 23 32 C21.55792059 29.11584117 21.90605113 26.58278472 21.9375 23.375 C21.94652344 22.18648437 21.95554688 20.99796875 21.96484375 19.7734375 C21.97644531 18.85820312 21.98804688 17.94296875 22 17 C19.36 16.67 16.72 16.34 14 16 C14 13.36 14 10.72 14 8 C8.72 8 3.44 8 -2 8 C-2 3 -2 3 0 0 Z " fill="#B60AF0" transform="translate(186,8)"/>
<path d="M0 0 C1.4540625 0.0309375 1.4540625 0.0309375 2.9375 0.0625 C3.2675 1.0525 3.5975 2.0425 3.9375 3.0625 C11.8575 3.0625 19.7775 3.0625 27.9375 3.0625 C25.89528087 5.10471913 24.08699287 6.1870288 21.5625 7.5625 C20.40621094 8.19671875 20.40621094 8.19671875 19.2265625 8.84375 C17.74111262 9.63463799 16.23592962 10.38989951 14.7109375 11.1015625 C12.38575914 12.36146091 12.0498618 13.69873118 10.9375 16.0625 C9.64279025 17.43336915 8.31599103 18.77590837 6.9375 20.0625 C6.4425 17.5875 6.4425 17.5875 5.9375 15.0625 C5.2775 15.0625 4.6175 15.0625 3.9375 15.0625 C3.9375 13.7425 3.9375 12.4225 3.9375 11.0625 C1.6275 11.3925 -0.6825 11.7225 -3.0625 12.0625 C-3.145 12.84625 -3.2275 13.63 -3.3125 14.4375 C-4.0625 17.0625 -4.0625 17.0625 -5.8125 18.4375 C-8.5606783 19.20088286 -10.34208849 18.81816986 -13.0625 18.0625 C-11.7573802 13.6355861 -10.0265877 10.10581547 -7.5 6.25 C-6.87996094 5.29480469 -6.25992187 4.33960938 -5.62109375 3.35546875 C-3.38727789 0.06912812 -3.38727789 0.06912812 0 0 Z " fill="#8A28F0" transform="translate(20.0625,20.9375)"/>
<path d="M0 0 C0.66 0 1.32 0 2 0 C1.67 1.32 1.34 2.64 1 4 C0.67 4 0.34 4 0 4 C-0.0928125 5.1446875 -0.0928125 5.1446875 -0.1875 6.3125 C-1 9 -1 9 -3.5625 10.4375 C-4.7690625 11.2109375 -4.7690625 11.2109375 -6 12 C-6.41746608 15.12635209 -6.41746608 15.12635209 -6 18 C-8.31 18.33 -10.62 18.66 -13 19 C-13.33 21.31 -13.66 23.62 -14 26 C-15.093125 26.020625 -16.18625 26.04125 -17.3125 26.0625 C-19.1378125 26.5265625 -19.1378125 26.5265625 -21 27 C-21.99 29.31 -22.98 31.62 -24 34 C-35.22 34 -46.44 34 -58 34 C-56.02 33.505 -56.02 33.505 -54 33 C-54 32.34 -54 31.68 -54 31 C-55.98 31 -57.96 31 -60 31 C-60 30.67 -60 30.34 -60 30 C-59.4016333 29.96036133 -58.8032666 29.92072266 -58.18676758 29.87988281 C-33.31188887 28.54348764 -33.31188887 28.54348764 -12.8984375 15.6015625 C-9.7708407 11.31559652 -7.23704963 7.22309845 -6 2 C-4.35 2 -2.7 2 -1 2 C-0.67 1.34 -0.34 0.68 0 0 Z " fill="#F96012" transform="translate(206,174)"/>
<path d="M0 0 C1.39696106 0.20935684 1.39696106 0.20935684 2.82214355 0.42294312 C13.66517557 1.96136163 24.34153341 2.34050364 35.28125 2.4140625 C37.07443071 2.43282825 38.86760309 2.4524054 40.6607666 2.4727478 C45.32284575 2.52350511 49.98495337 2.56342797 54.64715576 2.60089111 C59.42759916 2.6412898 64.20793003 2.69221616 68.98828125 2.7421875 C78.32544113 2.83827647 87.66266541 2.92288988 97 3 C97 3.33 97 3.66 97 4 C96.195625 4.12375 95.39125 4.2475 94.5625 4.375 C93.716875 4.58125 92.87125 4.7875 92 5 C91.67 5.66 91.34 6.32 91 7 C71.86 7 52.72 7 33 7 C32.505 5.515 32.505 5.515 32 4 C29.36 4 26.72 4 24 4 C23.67 4.66 23.34 5.32 23 6 C17.82434812 7.21132278 13.28497136 6.85359136 8.0390625 6.15625 C7.02972656 6.07890625 7.02972656 6.07890625 6 6 C5.67 6.33 5.34 6.66 5 7 C3.33382885 7.04063832 1.66611905 7.042721 0 7 C0 4.69 0 2.38 0 0 Z " fill="#FCB822" transform="translate(48,201)"/>
<path d="M0 0 C0 0.33 0 0.66 0 1 C-2.31 1.66 -4.62 2.32 -7 3 C-7 4.98 -7 6.96 -7 9 C-7.74765625 8.98839844 -8.4953125 8.97679687 -9.265625 8.96484375 C-10.25046875 8.95582031 -11.2353125 8.94679688 -12.25 8.9375 C-13.22453125 8.92589844 -14.1990625 8.91429687 -15.203125 8.90234375 C-17.68794488 8.98910422 -19.68069191 9.11696068 -22 10 C-22.68132451 11.66072849 -23.34742127 13.327767 -24 15 C-27.00852004 16.94469651 -29.71756807 17.34612379 -33.25 17.625 C-34.14203125 17.69976562 -35.0340625 17.77453125 -35.953125 17.8515625 C-36.62859375 17.90054688 -37.3040625 17.94953125 -38 18 C-39.03590199 23.05002222 -39.10251672 27.87416389 -39 33 C-40.0209375 32.6596875 -40.0209375 32.6596875 -41.0625 32.3125 C-45.15527655 31.87709824 -47.33132959 33.20163215 -51 35 C-49.57044858 29.2817943 -46.62106393 25.49698213 -43 21 C-42.21625 19.96875 -41.4325 18.9375 -40.625 17.875 C-30.74195544 7.0507131 -14.86502277 -0.99100152 0 0 Z " fill="#D30DC9" transform="translate(111,55)"/>
<path d="M0 0 C1.32 0 2.64 0 4 0 C4 0.99 4 1.98 4 3 C4.66 2.67 5.32 2.34 6 2 C6 1.34 6 0.68 6 0 C6.66 0 7.32 0 8 0 C9.02428091 3.38156484 9.12330354 6.46111027 9.12025452 9.98577881 C9.12162918 11.2113298 9.12300385 12.4368808 9.12442017 13.6995697 C9.12088128 15.05459619 9.11724648 16.40962244 9.11352539 17.76464844 C9.11324327 19.19379169 9.11340174 20.62293508 9.1139679 22.05207825 C9.1142549 25.92982958 9.10837385 29.80755 9.10139394 33.68529415 C9.09514424 37.73853842 9.09455532 41.79178339 9.09336853 45.84503174 C9.09025999 53.51954548 9.08205301 61.19404498 9.07201904 68.86855245 C9.06084311 77.60608281 9.05534372 86.34361385 9.05032361 95.08114958 C9.03987002 113.05410779 9.02227978 131.02705275 9 149 C7.35 149.33 5.7 149.66 4 150 C4.21153214 148.90401993 4.42306427 147.80803986 4.64100647 146.67884827 C7.03808084 133.48467478 7.45794053 120.63026691 7.43359375 107.24609375 C7.43817072 105.00708358 7.44348071 102.76807481 7.44947815 100.52906799 C7.45834179 95.86901082 7.45606252 91.20912566 7.44604492 86.54907227 C7.43454333 80.62666734 7.45482047 74.70485767 7.48396206 68.78253078 C7.50244813 64.16921832 7.50200739 59.55604542 7.49632454 54.94270515 C7.49617295 52.76098862 7.5020801 50.57926162 7.51461601 48.3975811 C7.59883049 31.35068447 5.38032115 16.22248346 0 0 Z " fill="#FCF8FC" transform="translate(216,32)"/>
<path d="M0 0 C4.41661151 -0.05804281 8.83312496 -0.09361104 13.25 -0.125 C14.50425781 -0.14175781 15.75851563 -0.15851562 17.05078125 -0.17578125 C18.25605469 -0.18222656 19.46132812 -0.18867188 20.703125 -0.1953125 C21.81333008 -0.20578613 22.92353516 -0.21625977 24.06738281 -0.22705078 C26.93950942 -0.00468334 28.57223735 0.50718425 31 2 C31 1.34 31 0.68 31 0 C34.41664873 -0.02908357 37.8332655 -0.04682691 41.25 -0.0625 C42.70212891 -0.07506836 42.70212891 -0.07506836 44.18359375 -0.08789062 C45.11816406 -0.09111328 46.05273438 -0.09433594 47.015625 -0.09765625 C47.87446289 -0.10289307 48.73330078 -0.10812988 49.61816406 -0.11352539 C51.88670744 -0.00539986 53.82631715 0.36417577 56 1 C56 1.99 56 2.98 56 4 C54.87207031 4.0501123 53.74414062 4.10022461 52.58203125 4.15185547 C48.31739999 4.34303927 44.05319653 4.54268312 39.7890625 4.74462891 C37.95843652 4.83019913 36.12770778 4.91360397 34.296875 4.99462891 C22.77180239 5.50643312 11.42360474 6.35391834 0 8 C0 5.36 0 2.72 0 0 Z " fill="#802DF2" transform="translate(48,16)"/>
<path d="M0 0 C0.99 0 1.98 0 3 0 C3.33 1.98 3.66 3.96 4 6 C4.33 4.02 4.66 2.04 5 0 C5.33 0 5.66 0 6 0 C7.22399452 6.64041122 7.11227753 13.20221697 7.0625 19.9375 C7.05798828 21.09830078 7.05347656 22.25910156 7.04882812 23.45507812 C7.03710647 26.30343934 7.0206976 29.15169222 7 32 C8.32 32.33 9.64 32.66 11 33 C10.505 33.495 10.505 33.495 10 34 C10.99 34.33 11.98 34.66 13 35 C14.1875 38.5625 14.1875 38.5625 15 42 C14.01 42.495 14.01 42.495 13 43 C13.66 43.33 14.32 43.66 15 44 C15 45.32 15 46.64 15 48 C16.98 48 18.96 48 21 48 C20.34 48.66 19.68 49.32 19 50 C20.485 50.495 20.485 50.495 22 51 C22.33 50.34 22.66 49.68 23 49 C23 51.64 23 54.28 23 57 C13.59214597 51.89660605 7.68863497 41.79793664 4 32 C1.20274853 21.48845348 0.41782552 10.83464796 0 0 Z " fill="#F9700B" transform="translate(1,152)"/>
<path d="M0 0 C2.31 0 4.62 0 7 0 C6.67 0.99 6.34 1.98 6 3 C5.01 2.67 4.02 2.34 3 2 C3 2.66 3 3.32 3 4 C3.99 4.33 4.98 4.66 6 5 C7.54158979 13.47874383 7.98794373 21.83295381 5 30 C5.24680201 32.56740432 5.24680201 32.56740432 6 35 C7.10453846 39.4100915 7.14938127 43.73133734 7.125 48.25 C7.12886719 48.9821875 7.13273438 49.714375 7.13671875 50.46875 C7.12671034 55.87328966 7.12671034 55.87328966 6 57 C5.13687002 61.90194152 4.82331791 66.71340562 4.68359375 71.68359375 C4.66281265 72.38396255 4.64203156 73.08433136 4.62062073 73.80592346 C4.55587535 76.01636106 4.49659392 78.22690485 4.4375 80.4375 C4.39424319 81.94727607 4.35062677 83.45704188 4.30664062 84.96679688 C4.20027252 88.64442196 4.09879998 92.32216291 4 96 C3.67 96 3.34 96 3 96 C2.99191315 95.03328369 2.98382629 94.06656738 2.97549438 93.07055664 C2.89749903 83.89255762 2.80963276 74.71469719 2.71247292 65.53688049 C2.66284746 60.82018892 2.61651897 56.10351618 2.578125 51.38671875 C2.54084016 46.82190405 2.49437309 42.25726132 2.44193649 37.69259644 C2.42361894 35.9642137 2.40843072 34.23579443 2.39665604 32.50735474 C2.31927714 21.5259597 1.623867 10.86499307 0 0 Z " fill="#DC2DC0" transform="translate(201,48)"/>
<path d="M0 0 C2.475 0.99 2.475 0.99 5 2 C5 13.55 5 25.1 5 37 C4.34 37 3.68 37 3 37 C3.04125 37.94875 3.0825 38.8975 3.125 39.875 C3 43 3 43 1 45 C1 42.36 1 39.72 1 37 C0.01 37 -0.98 37 -2 37 C-2.04958948 32.53427636 -2.085809 28.06870039 -2.10986328 23.6027832 C-2.11989545 22.08485114 -2.13352438 20.56693827 -2.15087891 19.04907227 C-2.17525035 16.8620936 -2.18651095 14.67537136 -2.1953125 12.48828125 C-2.20578613 11.17384033 -2.21625977 9.85939941 -2.22705078 8.50512695 C-2.01205976 5.18617411 -1.44225823 2.96685993 0 0 Z " fill="#FB4A15" transform="translate(3,115)"/>
<path d="M0 0 C0.33 0 0.66 0 1 0 C1.00808685 1.01682861 1.01617371 2.03365723 1.02450562 3.08129883 C1.10246613 12.73020981 1.19032469 22.37898837 1.28752708 32.02772522 C1.33717412 36.98655478 1.38350306 41.94536623 1.421875 46.90429688 C1.45913177 51.70252564 1.50559265 56.5005899 1.55806351 61.29867554 C1.57639554 63.11637444 1.59157885 64.9341083 1.60334396 66.75186157 C1.70217881 81.51354117 2.2155999 95.89285456 7 110 C7.34626722 111.33003304 7.68370464 112.66252247 8 114 C7.01 113.67 6.02 113.34 5 113 C5 113.99 5 114.98 5 116 C3.35 115.67 1.7 115.34 0 115 C0 77.05 0 39.1 0 0 Z " fill="#FAE4E5" transform="translate(0,76)"/>
<path d="M0 0 C2.38424757 3.57637135 2.35148191 5.47054113 2.5625 9.73046875 C2.59868439 10.39419998 2.63486877 11.05793121 2.67214966 11.74177551 C2.74900888 13.15862839 2.82206728 14.57569167 2.8916626 15.99291992 C3.07149483 19.63576382 3.28040013 23.27686099 3.4921875 26.91796875 C3.53310516 27.62637909 3.57402283 28.33478943 3.61618042 29.06466675 C4.05796445 36.43265813 4.87243167 43.70679205 6 51 C4.68 51 3.36 51 2 51 C2 49.35 2 47.7 2 46 C1.34 46 0.68 46 0 46 C-0.495 48.475 -0.495 48.475 -1 51 C-2.07810785 47.76567645 -1.73149044 45.8145171 -1.26171875 42.5078125 C-0.51453737 35.34825359 -0.8288327 28.2239158 -1.77709961 21.1081543 C-1.99569837 19.04068406 -2.06466382 17.03525015 -2.06640625 14.95703125 C-2.06769531 14.22653564 -2.06898437 13.49604004 -2.0703125 12.7434082 C-2.05900147 9.49537429 -2.03547429 6.24786858 -2 3 C-1.34 3 -0.68 3 0 3 C0 2.01 0 1.02 0 0 Z " fill="#FC510A" transform="translate(18,125)"/>
<path d="M0 0 C37.29 0 74.58 0 113 0 C112.34 1.65 111.68 3.3 111 5 C110.01 5 109.02 5 108 5 C108 5.66 108 6.32 108 7 C106.15535156 6.58427734 106.15535156 6.58427734 104.2734375 6.16015625 C102.64064416 5.79418533 101.00783059 5.42830468 99.375 5.0625 C98.56675781 4.88009766 97.75851563 4.69769531 96.92578125 4.50976562 C96.13300781 4.33251953 95.34023437 4.15527344 94.5234375 3.97265625 C93.80075684 3.81031494 93.07807617 3.64797363 92.33349609 3.48071289 C86.72378331 2.32508154 81.331896 1.83780459 75.60791016 1.79467773 C74.37764603 1.77982834 74.37764603 1.77982834 73.12252808 1.76467896 C70.4280683 1.7332458 67.73359093 1.70837889 65.0390625 1.68359375 C63.16433266 1.6630085 61.2896073 1.64201162 59.41488647 1.62062073 C54.49289589 1.56556231 49.57086455 1.51608178 44.64880371 1.46777344 C39.62130122 1.41743955 34.59385753 1.36181567 29.56640625 1.30664062 C19.7109878 1.19925771 9.85551818 1.09776902 0 1 C0 0.67 0 0.34 0 0 Z " fill="#EADBFA" transform="translate(80,0)"/>
<path d="M0 0 C1.34262065 0.29369827 2.67696283 0.6278958 4 1 C4.66 0.67 5.32 0.34 6 0 C6 1.65 6 3.3 6 5 C6.66 5 7.32 5 8 5 C8.33 5.66 8.66 6.32 9 7 C10.88764903 7.68472665 10.88764903 7.68472665 13.0625 8.125 C14.16271484 8.37636719 14.16271484 8.37636719 15.28515625 8.6328125 C15.85105469 8.75398437 16.41695312 8.87515625 17 9 C17 8.67 17 8.34 17 8 C18.99954746 7.95745644 21.00041636 7.95919217 23 8 C23.33 8.33 23.66 8.66 24 9 C25.2684375 8.7834375 25.2684375 8.7834375 26.5625 8.5625 C30.46890511 7.92327007 34.04676665 7.9318408 38 8 C37.01 8.33 36.02 8.66 35 9 C35 9.66 35 10.32 35 11 C35.99 11 36.98 11 38 11 C38 11.99 38 12.98 38 14 C40.64 13.67 43.28 13.34 46 13 C46 13.99 46 14.98 46 16 C28.26361703 16.79548561 12.11877094 12.90299882 -2 2 C-1.34 1.34 -0.68 0.68 0 0 Z " fill="#FCC709" transform="translate(26,208)"/>
<path d="M0 0 C0.33 0 0.66 0 1 0 C1.7522936 12.90044218 -0.34880466 26.3246878 -6 38 C-7.03974499 34.58934861 -7.11508506 31.47735158 -7.09765625 27.921875 C-7.09443359 26.76171875 -7.09121094 25.6015625 -7.08789062 24.40625 C-7.07951172 23.1996875 -7.07113281 21.993125 -7.0625 20.75 C-7.05798828 19.52796875 -7.05347656 18.3059375 -7.04882812 17.046875 C-7.03704815 14.03120054 -7.02059853 11.01562502 -7 8 C-6.34 8 -5.68 8 -5 8 C-4.67 7.01 -4.34 6.02 -4 5 C-3.34 5.33 -2.68 5.66 -2 6 C-2 5.34 -2 4.68 -2 4 C-1.34 4 -0.68 4 0 4 C0 2.68 0 1.36 0 0 Z " fill="#FC075A" transform="translate(223,152)"/>
<path d="M0 0 C5.21442276 -0.0494186 10.42870934 -0.08572831 15.64331055 -0.10986328 C17.41742324 -0.11992411 19.19151935 -0.13357422 20.96557617 -0.15087891 C23.51485284 -0.17512378 26.06391037 -0.18648218 28.61328125 -0.1953125 C29.40712723 -0.20563507 30.20097321 -0.21595764 31.01887512 -0.22659302 C34.88223043 -0.2273811 36.70839446 -0.19440369 40 2 C34.72 2 29.44 2 24 2 C24 2.66 24 3.32 24 4 C20.37 4 16.74 4 13 4 C13 4.66 13 5.32 13 6 C9.66668561 6.02937438 6.33340517 6.04692334 3 6.0625 C2.06542969 6.07087891 1.13085938 6.07925781 0.16796875 6.08789062 C-5.32274401 6.10708892 -10.56866481 5.8134193 -16 5 C-16 4.67 -16 4.34 -16 4 C-8.08 3.505 -8.08 3.505 0 3 C0 2.01 0 1.02 0 0 Z " fill="#A114F6" transform="translate(112,2)"/>
<path d="M0 0 C2.7925338 10.2392906 3.21740652 18.52737042 2 29 C0.02 29 -1.96 29 -4 29 C-4.88902912 22.95180188 -5.12348383 17.10776514 -5.0625 11 C-5.05798828 10.12988281 -5.05347656 9.25976562 -5.04882812 8.36328125 C-5.0371736 6.24215707 -5.01924357 4.1210689 -5 2 C-1.125 0 -1.125 0 0 0 Z " fill="#CF0FA8" transform="translate(6,67)"/>
<path d="M0 0 C1.65 0 3.3 0 5 0 C5 0.33 5 0.66 5 1 C7.31 1.33 9.62 1.66 12 2 C12 1.34 12 0.68 12 0 C14.97 0 17.94 0 21 0 C21 0.66 21 1.32 21 2 C21.680625 1.67 22.36125 1.34 23.0625 1 C26.50840238 -0.17307315 29.38397422 -0.14180493 33 0 C31.59206046 2.81587908 30.13394207 2.94505011 27.1875 4 C21.34654726 5.88122362 15.59715064 6.69953268 9.5 7.3125 C8.62754639 7.40080078 7.75509277 7.48910156 6.85620117 7.58007812 C2.94579698 7.92358268 -0.19871199 8.12696378 -4 7 C-3.34 7 -2.68 7 -2 7 C-2.66 5.68 -3.32 4.36 -4 3 C-2.68 3 -1.36 3 0 3 C0 2.01 0 1.02 0 0 Z " fill="#FA700C" transform="translate(156,216)"/>
<path d="M0 0 C34.90205657 -0.20638953 34.90205657 -0.20638953 48 1 C48 1.99 48 2.98 48 4 C47.01257813 4.12117187 46.02515625 4.24234375 45.0078125 4.3671875 C43.72648437 4.53476563 42.44515625 4.70234375 41.125 4.875 C39.84882812 5.03742187 38.57265625 5.19984375 37.2578125 5.3671875 C33.92835773 5.69877473 33.92835773 5.69877473 32 8 C29.27130593 7.96712417 26.7033382 7.43602229 24 7 C24 6.34 24 5.68 24 5 C20.04 5 16.08 5 12 5 C13.32 4.34 14.64 3.68 16 3 C10.72 2.34 5.44 1.68 0 1 C0 0.67 0 0.34 0 0 Z " fill="#8C27F7" transform="translate(64,1)"/>
<path d="M0 0 C0.78503906 0.20496094 1.57007813 0.40992188 2.37890625 0.62109375 C3.42949219 0.89050781 4.48007812 1.15992188 5.5625 1.4375 C6.59503906 1.70433594 7.62757812 1.97117188 8.69140625 2.24609375 C15.01889377 3.68789433 21.13958864 4.15703023 27.59741211 4.20532227 C28.84252563 4.22017166 28.84252563 4.22017166 30.11279297 4.23532104 C32.83428169 4.26670342 35.55578782 4.29160067 38.27734375 4.31640625 C40.1730645 4.33699591 42.06878087 4.35799289 43.9644928 4.37937927 C48.93743322 4.43439224 53.91041363 4.48389256 58.88342285 4.53222656 C63.96463553 4.58259391 69.04579061 4.63820022 74.12695312 4.69335938 C84.08458614 4.80068659 94.0422693 4.90218733 104 5 C104 5.33 104 5.66 104 6 C69.35 6 34.7 6 -1 6 C-1 3 -1 3 0 0 Z " fill="#FDF4DA" transform="translate(40,219)"/>
<path d="M0 0 C0.66 0 1.32 0 2 0 C4.50963452 10.08335297 6.73974749 19.52024391 6 30 C4.35 30 2.7 30 1 30 C-0.64826111 27.03312999 -1.44271087 24.34373475 -2 21 C-1.67 21 -1.34 21 -1 21 C-1.01160156 19.98679687 -1.02320313 18.97359375 -1.03515625 17.9296875 C-1.04454209 16.57812686 -1.05364143 15.2265642 -1.0625 13.875 C-1.07087891 13.20984375 -1.07925781 12.5446875 -1.08789062 11.859375 C-1.10782292 7.79318646 -0.78890161 3.9879908 0 0 Z " fill="#C018DE" transform="translate(218,42)"/>
<path d="M0 0 C1.12775345 0.00212242 1.12775345 0.00212242 2.27828979 0.00428772 C4.6829626 0.0098916 7.08754277 0.02244468 9.4921875 0.03515625 C11.12109241 0.04017075 12.74999877 0.04473375 14.37890625 0.04882812 C18.37503577 0.05986228 22.37109592 0.07712946 26.3671875 0.09765625 C26.3671875 2.40765625 26.3671875 4.71765625 26.3671875 7.09765625 C24.84566671 6.98132267 23.32498027 6.85406755 21.8046875 6.72265625 C20.95777344 6.65304688 20.11085937 6.5834375 19.23828125 6.51171875 C16.3671875 6.09765625 16.3671875 6.09765625 13.1484375 5.09765625 C8.5372036 3.87815637 4.17760905 3.64596441 -0.5703125 3.47265625 C-1.44494141 3.43398437 -2.31957031 3.3953125 -3.22070312 3.35546875 C-5.35775881 3.26204555 -7.49525544 3.17880227 -9.6328125 3.09765625 C-9.6328125 2.43765625 -9.6328125 1.77765625 -9.6328125 1.09765625 C-6.56686656 -0.43531672 -3.36169397 -0.0236583 0 0 Z " fill="#DB05B4" transform="translate(109.6328125,71.90234375)"/>
<path d="M0 0 C0 2.64 0 5.28 0 8 C-2.31 8 -4.62 8 -7 8 C-7.33 10.64 -7.66 13.28 -8 16 C-23.375 16 -23.375 16 -28 15 C-27.67 14.34 -27.34 13.68 -27 13 C-24.99850903 12.35340967 -22.97228221 11.78264104 -20.9375 11.25 C-14.81717361 9.46015647 -10.80939256 7.05899088 -6 3 C-1.3 0 -1.3 0 0 0 Z " fill="#F92F43" transform="translate(144,136)"/>
<path d="M0 0 C2.31 0 4.62 0 7 0 C3.3329218 10.2714678 -4.84116259 17.48002728 -14 23 C-14.66 23 -15.32 23 -16 23 C-16 20.69 -16 18.38 -16 16 C-13.36 15.67 -10.72 15.34 -8 15 C-8.04125 14.21625 -8.0825 13.4325 -8.125 12.625 C-8 10 -8 10 -6 8 C-2.875 7.875 -2.875 7.875 0 8 C0 5.36 0 2.72 0 0 Z " fill="#F73232" transform="translate(208,192)"/>
<path d="M0 0 C0.33 0 0.66 0 1 0 C1 33.33 1 66.66 1 101 C-1.475 101.495 -1.475 101.495 -4 102 C-3.78937424 100.86060471 -3.57874847 99.72120941 -3.36174011 98.54728699 C-1.25875843 86.62382259 -0.53115635 75.07803543 -0.48828125 62.98828125 C-0.47137579 61.15454455 -0.45321804 59.32081902 -0.43388367 57.48710632 C-0.38701294 52.73134866 -0.35680123 47.97563622 -0.33044434 43.21972656 C-0.30031553 38.33845069 -0.25389919 33.45733012 -0.20898438 28.57617188 C-0.12367034 19.05086357 -0.05601128 9.52552264 0 0 Z " fill="#FAD4EB" transform="translate(224,80)"/>
<path d="M0 0 C0.66 0.33 1.32 0.66 2 1 C1.67 8.59 1.34 16.18 1 24 C1.66 24 2.32 24 3 24 C3.18413176 29.33982109 2.69504588 32.91486237 1 38 C0.83351821 40.69308777 0.90681953 43.29776637 1 46 C1.66 46 2.32 46 3 46 C2.814375 46.721875 2.62875 47.44375 2.4375 48.1875 C1.8091054 50.97874878 1.8091054 50.97874878 2.6875 53.5625 C2.790625 54.366875 2.89375 55.17125 3 56 C1.125 58.125 1.125 58.125 -1 60 C-1.33 60.99 -1.66 61.98 -2 63 C-2.33 63 -2.66 63 -3 63 C-2.94013916 62.36102783 -2.88027832 61.72205566 -2.81860352 61.0637207 C-1.76984561 48.79437002 -1.4075593 36.48954917 -0.9375 24.1875 C-0.84592697 21.83788189 -0.75413199 19.48827242 -0.66210938 17.13867188 C-0.43884546 11.42587841 -0.21832846 5.71298411 0 0 Z " fill="#FA0862" transform="translate(205,112)"/>
<path d="M0 0 C4.62 0 9.24 0 14 0 C14.66 1.32 15.32 2.64 16 4 C16.66 3.67 17.32 3.34 18 3 C20 3.1875 20 3.1875 22 4 C22.66 5.32 23.32 6.64 24 8 C30.27 8 36.54 8 43 8 C43 8.33 43 8.66 43 9 C29.70929004 12.13772999 14.86008264 10.39472531 3.125 3.3125 C2.09375 2.549375 1.0625 1.78625 0 1 C0 0.67 0 0.34 0 0 Z " fill="#FA622A" transform="translate(82,160)"/>
<path d="M0 0 C0.33 0 0.66 0 1 0 C1 1.98 1 3.96 1 6 C2.32 6.33 3.64 6.66 5 7 C4.67 7.33 4.34 7.66 4 8 C4.99 8.33 5.98 8.66 7 9 C8.1875 12.5625 8.1875 12.5625 9 16 C8.34 16.33 7.68 16.66 7 17 C7.66 17.33 8.32 17.66 9 18 C9 19.32 9 20.64 9 22 C10.98 22 12.96 22 15 22 C14.34 22.66 13.68 23.32 13 24 C13.99 24.33 14.98 24.66 16 25 C16.33 24.34 16.66 23.68 17 23 C17 25.64 17 28.28 17 31 C7.57728971 25.8885471 1.78471091 15.77716984 -2 6 C-2 4.68 -2 3.36 -2 2 C-1.34 2 -0.68 2 0 2 C0 1.34 0 0.68 0 0 Z " fill="#F9960B" transform="translate(7,178)"/>
<path d="M0 0 C1.62463842 -0.05395478 3.24978541 -0.09277195 4.875 -0.125 C5.77992188 -0.14820312 6.68484375 -0.17140625 7.6171875 -0.1953125 C10 0 10 0 12 2 C12.125 5.125 12.125 5.125 12 8 C14.64 8 17.28 8 20 8 C20 12.62 20 17.24 20 22 C18 20 18 20 16.1875 16.6875 C12.40372634 9.93276331 6.34224113 4.51733982 -1 2 C-0.67 1.34 -0.34 0.68 0 0 Z " fill="#B80EE7" transform="translate(180,24)"/>
<path d="M0 0 C0.33 0 0.66 0 1 0 C1.23074219 0.845625 1.46148437 1.69125 1.69921875 2.5625 C3.68972771 9.48600943 5.84233491 15.10997445 10 21 C8.35 22.32 6.7 23.64 5 25 C5 23.02 5 21.04 5 19 C2.36 19 -0.28 19 -3 19 C-3.08226668 15.95613276 -2.97608217 13.92824652 -2 11 C-2.165 10.360625 -2.33 9.72125 -2.5 9.0625 C-3.07702481 6.68227266 -2.74022853 5.30293321 -2 3 C-1.34 3 -0.68 3 0 3 C0 2.01 0 1.02 0 0 Z " fill="#F82644" transform="translate(75,117)"/>
<path d="M0 0 C7.58954531 0.44644384 14.01639737 3.11500562 21 6 C20.67 6.66 20.34 7.32 20 8 C13.4 8 6.8 8 0 8 C0 5.36 0 2.72 0 0 Z " fill="#CB09C7" transform="translate(120,56)"/>
<path d="M0 0 C19.8 0 39.6 0 60 0 C60 0.66 60 1.32 60 2 C63.96 2.33 67.92 2.66 72 3 C72 3.33 72 3.66 72 4 C61.19852381 4.93363823 50.80147619 4.93363823 40 4 C40 3.67 40 3.34 40 3 C46.435 2.505 46.435 2.505 53 2 C35.51 1.67 18.02 1.34 0 1 C0 0.67 0 0.34 0 0 Z " fill="#A307EC" transform="translate(96,1)"/>
<path d="M0 0 C0.33 0 0.66 0 1 0 C1 2.64 1 5.28 1 8 C1.66 8 2.32 8 3 8 C3.33 7.01 3.66 6.02 4 5 C4 5.99 4 6.98 4 8 C4.66 8 5.32 8 6 8 C6.625 11.375 6.625 11.375 7 15 C6.34 15.66 5.68 16.32 5 17 C4.53709779 19.66242821 4.53709779 19.66242821 4.375 22.625 C4.30023437 23.62789062 4.22546875 24.63078125 4.1484375 25.6640625 C4.09945313 26.43492188 4.05046875 27.20578125 4 28 C3.34 28 2.68 28 2 28 C1.34 29.32 0.68 30.64 0 32 C0 21.44 0 10.88 0 0 Z " fill="#E20E73" transform="translate(1,88)"/>
<path d="M0 0 C0 0.33 0 0.66 0 1 C-1.2065625 1.185625 -1.2065625 1.185625 -2.4375 1.375 C-3.283125 1.58125 -4.12875 1.7875 -5 2 C-5.33 2.66 -5.66 3.32 -6 4 C-18.21 4 -30.42 4 -43 4 C-42.34 3.67 -41.68 3.34 -41 3 C-41 2.34 -41 1.68 -41 1 C-27.32550669 0.3507249 -13.69096943 -0.16741675 0 0 Z " fill="#FBB201" transform="translate(145,204)"/>
<path d="M0 0 C2.2952839 1.95099131 3.38237883 3.68828189 4.875 6.375 C8.6843355 13.18044207 14.55638416 16.91483179 21 21 C17.56031308 21.92864118 14.57856917 22.22841931 11 22 C10.01 21.34 9.02 20.68 8 20 C7.8125 16.875 7.8125 16.875 8 14 C5.69 14 3.38 14 1 14 C0.83081732 12.41693353 0.66476064 10.83353281 0.5 9.25 C0.4071875 8.36828125 0.314375 7.4865625 0.21875 6.578125 C0 4 0 4 0 0 Z M12 18 C13 20 13 20 13 20 Z " fill="#FAA613" transform="translate(24,178)"/>
<path d="M0 0 C0.66 0 1.32 0 2 0 C1.67 1.32 1.34 2.64 1 4 C0.67 4 0.34 4 0 4 C-0.0928125 5.1446875 -0.0928125 5.1446875 -0.1875 6.3125 C-1 9 -1 9 -3.5625 10.4375 C-4.7690625 11.2109375 -4.7690625 11.2109375 -6 12 C-6.41746608 15.12635209 -6.41746608 15.12635209 -6 18 C-7.051875 18.0825 -8.10375 18.165 -9.1875 18.25 C-13.27047209 19.05320762 -15.0122727 20.19334709 -18 23 C-18.66 22.34 -19.32 21.68 -20 21 C-19.25105469 20.60425781 -18.50210938 20.20851562 -17.73046875 19.80078125 C-11.82547277 15.90635615 -7.61850128 8.83367206 -6 2 C-4.35 2 -2.7 2 -1 2 C-0.67 1.34 -0.34 0.68 0 0 Z " fill="#FA2D3A" transform="translate(206,174)"/>
<path d="M0 0 C0.66 0 1.32 0 2 0 C2 1.98 2 3.96 2 6 C0.906875 6.020625 -0.18625 6.04125 -1.3125 6.0625 C-4.95732337 6.56114043 -4.95732337 6.56114043 -6.1328125 8.625 C-7.06424734 10.78223035 -7.06424734 10.78223035 -8 14 C-15.50769231 14.36923077 -15.50769231 14.36923077 -18 12.5 C-18.33 12.005 -18.66 11.51 -19 11 C-16.525 11.495 -16.525 11.495 -14 12 C-14 11.01 -14 10.02 -14 9 C-13.34 9 -12.68 9 -12 9 C-11.95875 8.401875 -11.9175 7.80375 -11.875 7.1875 C-11 5 -11 5 -8.1875 3.3125 C-5.74743132 2.30776584 -3.55563498 1.56791888 -1 1 C-0.67 0.67 -0.34 0.34 0 0 Z " fill="#FC4C22" transform="translate(190,194)"/>
<path d="M0 0 C2.64 0 5.28 0 8 0 C7.42415568 2.38564077 6.77772405 4.66682784 6 7 C6.66 7.33 7.32 7.66 8 8 C8 12.66666667 8 17.33333333 8 22 C1.9786427 16.82163272 0.57076337 7.56261469 0 0 Z " fill="#F92747" transform="translate(56,120)"/>
<path d="M0 0 C10.56 0 21.12 0 32 0 C32 0.66 32 1.32 32 2 C34.64 2 37.28 2 40 2 C40 2.33 40 2.66 40 3 C26.8 3 13.6 3 0 3 C0 2.01 0 1.02 0 0 Z " fill="#A416EE" transform="translate(104,16)"/>
<path d="M0 0 C3.24998112 -0.02909763 6.49992857 -0.04683161 9.75 -0.0625 C10.67039062 -0.07087891 11.59078125 -0.07925781 12.5390625 -0.08789062 C13.87324219 -0.09272461 13.87324219 -0.09272461 15.234375 -0.09765625 C16.05131836 -0.10289307 16.86826172 -0.10812988 17.70996094 -0.11352539 C19.93968135 -0.00299021 21.86133755 0.37944433 24 1 C24 1.99 24 2.98 24 4 C10.00332032 5.18400916 -3.9626728 5.1044444 -18 5 C-18 4.67 -18 4.34 -18 4 C-16.75863281 3.93941406 -15.51726562 3.87882812 -14.23828125 3.81640625 C-12.59634423 3.73196377 -10.95441768 3.64731764 -9.3125 3.5625 C-8.08756836 3.50352539 -8.08756836 3.50352539 -6.83789062 3.44335938 C-2.80344189 3.23101997 1.05747309 2.95552078 5 2 C2.525 1.505 2.525 1.505 0 1 C0 0.67 0 0.34 0 0 Z " fill="#921FF2" transform="translate(80,16)"/>
<path d="M0 0 C0.66 0 1.32 0 2 0 C2 4.62 2 9.24 2 14 C0.35 13.67 -1.3 13.34 -3 13 C-5.02670985 13.49359898 -5.02670985 13.49359898 -6.8125 14.4375 C-7.864375 14.953125 -8.91625 15.46875 -10 16 C-8.38920595 9.55682381 -4.63830054 4.63830054 0 0 Z " fill="#E80DA7" transform="translate(70,74)"/>
<path d="M0 0 C0.66 0.99 1.32 1.98 2 3 C1.171875 5.6796875 1.171875 5.6796875 -0.25 8.875 C-4.85998327 20.19952412 -5.36525407 31.92312345 -6 44 C-6.33 44 -6.66 44 -7 44 C-7.02472039 39.35522856 -7.04286968 34.71049543 -7.05493164 30.06567383 C-7.05996014 28.48558892 -7.06678378 26.90550866 -7.07543945 25.32543945 C-7.08756992 23.05418754 -7.09324313 20.78299715 -7.09765625 18.51171875 C-7.10281754 17.80536789 -7.10797882 17.09901703 -7.11329651 16.3712616 C-7.11364803 13.29745609 -6.9803186 10.9409558 -6 8 C-5.01 8 -4.02 8 -3 8 C-3 6.35 -3 4.7 -3 3 C-2.34 3 -1.68 3 -1 3 C-0.67 2.01 -0.34 1.02 0 0 Z " fill="#FAF9F7" transform="translate(7,32)"/>
<path d="M0 0 C2.475 0.99 2.475 0.99 5 2 C5 5.3 5 8.6 5 12 C4.01 12.33 3.02 12.66 2 13 C2 15.64 2 18.28 2 21 C0.68 21 -0.64 21 -2 21 C-2.05420701 18.43721301 -2.09377007 15.87558517 -2.125 13.3125 C-2.15013672 12.2306543 -2.15013672 12.2306543 -2.17578125 11.12695312 C-2.21391569 6.95123219 -1.8789919 3.7505862 0 0 Z " fill="#F6273F" transform="translate(3,115)"/>
<path d="M0 0 C0.66 0 1.32 0 2 0 C2 0.66 2 1.32 2 2 C2.66 2 3.32 2 4 2 C4 8.6 4 15.2 4 22 C3.34 20.68 2.68 19.36 2 18 C0.68 18.33 -0.64 18.66 -2 19 C-1.85913398 16.39547729 -1.71251536 13.79149803 -1.5625 11.1875 C-1.50352539 10.08051758 -1.50352539 10.08051758 -1.44335938 8.95117188 C-1.25618965 5.76928658 -1.01279207 3.03837622 0 0 Z " fill="#B014C6" transform="translate(3,50)"/>
<path d="M0 0 C0.66 0.33 1.32 0.66 2 1 C1.11552347 8.58122744 1.11552347 8.58122744 0.5 10.8125 C-0.21506544 13.9409113 -0.35511512 17.05034751 -0.5625 20.25 C-0.64628906 21.51328125 -0.73007813 22.7765625 -0.81640625 24.078125 C-0.87699219 25.04234375 -0.93757813 26.0065625 -1 27 C-1.66 27 -2.32 27 -3 27 C-3.33 27.66 -3.66 28.32 -4 29 C-4 20.42 -4 11.84 -4 3 C-2.68 3 -1.36 3 0 3 C0 2.01 0 1.02 0 0 Z " fill="#F10788" transform="translate(76,93)"/>
<path d="M0 0 C1.90909692 2.36728018 3.80346455 4.74245473 5.6484375 7.16015625 C8.88612948 11.39460493 12.11324767 15.34880842 16 19 C12 19 12 19 10 18 C9.566875 17.505 9.13375 17.01 8.6875 16.5 C6.53720546 14.58862707 4.80511654 14.43155639 2 14 C1.34 13.67 0.68 13.34 0 13 C0.020625 12.071875 0.04125 11.14375 0.0625 10.1875 C0.15769604 6.97713989 0.15769604 6.97713989 -1 4 C-0.5625 1.8125 -0.5625 1.8125 0 0 Z " fill="#FBF7ED" transform="translate(9,192)"/>
<path d="M0 0 C3.73487777 0.4979837 5.81237635 0.87491756 9 3 C11.23625789 9.17633132 10.99562101 12.79140129 9 19 C8.67 19 8.34 19 8 19 C8 15.7 8 12.4 8 9 C5.69 9 3.38 9 1 9 C-0.4783226 6.04335481 -0.06032783 3.25770263 0 0 Z " fill="#BA05E6" transform="translate(208,31)"/>
<path d="M0 0 C-0.16371094 0.54140625 -0.32742187 1.0828125 -0.49609375 1.640625 C-1.08590587 4.40222593 -1.09609308 6.92818139 -1.0625 9.75 C-1.04896484 11.22726563 -1.04896484 11.22726563 -1.03515625 12.734375 C-1.02355469 13.48203125 -1.01195312 14.2296875 -1 15 C-2.98 15 -4.96 15 -7 15 C-8.55422337 12.46416187 -9.11962482 10.68695441 -8.60546875 7.734375 C-6.71936662 1.48098827 -6.71936662 1.48098827 -4.0078125 -0.33203125 C-2 -1 -2 -1 0 0 Z " fill="#EC1194" transform="translate(65,89)"/>
<path d="M0 0 C2.31 0 4.62 0 7 0 C6.67 0.99 6.34 1.98 6 3 C5.01 2.67 4.02 2.34 3 2 C3 2.66 3 3.32 3 4 C3.99 4.33 4.98 4.66 6 5 C7.5013979 11.60615076 6.30737687 17.41989657 5 24 C2.55132803 20.32699204 2.07689324 16.82757573 1.375 12.5625 C1.2409375 11.79873047 1.106875 11.03496094 0.96875 10.24804688 C0.36808743 6.72681579 0 3.59981922 0 0 Z " fill="#C601D7" transform="translate(201,48)"/>
<path d="M0 0 C0.33 0 0.66 0 1 0 C1 2.64 1 5.28 1 8 C1.66 8 2.32 8 3 8 C3.66 13.28 4.32 18.56 5 24 C3.68 24 2.36 24 1 24 C1 22.35 1 20.7 1 19 C0.34 19 -0.32 19 -1 19 C-1.33 20.65 -1.66 22.3 -2 24 C-3.07041123 20.78876631 -2.93878878 19.39600592 -2.44140625 16.11328125 C-2.30283203 15.17548828 -2.16425781 14.23769531 -2.02148438 13.27148438 C-1.87001953 12.29501953 -1.71855469 11.31855469 -1.5625 10.3125 C-1.41490234 9.32443359 -1.26730469 8.33636719 -1.11523438 7.31835938 C-0.74975343 4.87788987 -0.37777429 2.43859165 0 0 Z " fill="#F96716" transform="translate(19,152)"/>
<path d="M0 0 C3.34130766 4.17663458 4.96473843 6.74492225 6.8125 11.5625 C7.25207031 12.67753906 7.69164062 13.79257813 8.14453125 14.94140625 C9.35526621 19.27019838 9.35526621 19.27019838 8 22 C7.01 22.33 6.02 22.66 5 23 C5.2475 22.4225 5.495 21.845 5.75 21.25 C5.8325 20.5075 5.915 19.765 6 19 C4.27062171 16.68721883 4.27062171 16.68721883 2 15 C1.34 15 0.68 15 0 15 C0 10.05 0 5.1 0 0 Z " fill="#E20BA5" transform="translate(160,81)"/>
<path d="M0 0 C0.33 0 0.66 0 1 0 C2.10228696 4.40914783 2.07654536 8.48382401 2 13 C2.66 13 3.32 13 4 13 C4 10.36 4 7.72 4 5 C4.33 5 4.66 5 5 5 C5.33 10.28 5.66 15.56 6 21 C4.02 21 2.04 21 0 21 C-2.43478261 4.86956522 -2.43478261 4.86956522 0 0 Z " fill="#D80E96" transform="translate(2,75)"/>
<path d="M0 0 C0.33 0 0.66 0 1 0 C1.10655578 6.44070471 0.96205088 12.62641289 0 19 C-0.33 18.01 -0.66 17.02 -1 16 C-2.32 16 -3.64 16 -5 16 C-5.66 16.99 -6.32 17.98 -7 19 C-7 15.37 -7 11.74 -7 8 C-6.34 8 -5.68 8 -5 8 C-4.67 7.01 -4.34 6.02 -4 5 C-3.34 5.33 -2.68 5.66 -2 6 C-2 5.34 -2 4.68 -2 4 C-1.34 4 -0.68 4 0 4 C0 2.68 0 1.36 0 0 Z " fill="#FA156F" transform="translate(223,152)"/>
<path d="M0 0 C0.66 -0.33 1.32 -0.66 2 -1 C2 0.65 2 2.3 2 4 C2.66 4 3.32 4 4 4 C4.33 4.66 4.66 5.32 5 6 C6.88764903 6.68472665 6.88764903 6.68472665 9.0625 7.125 C10.16271484 7.37636719 10.16271484 7.37636719 11.28515625 7.6328125 C11.85105469 7.75398437 12.41695312 7.87515625 13 8 C13 7.67 13 7.34 13 7 C14.98 7 16.96 7 19 7 C18.67 8.65 18.34 10.3 18 12 C9.57245002 11.08639392 2.89287452 7.89699472 -4 3 C-4.66 2.01 -5.32 1.02 -6 0 C-3.4791665 -1.26041675 -2.64903564 -0.66225891 0 0 Z " fill="#F9C00E" transform="translate(30,209)"/>
<path d="M0 0 C0.598125 0.165 1.19625 0.33 1.8125 0.5 C4.11344336 1.1114124 4.11344336 1.1114124 7 1 C4.16204649 7.13320758 -0.46006763 12.15282474 -6 16 C-6.66 16 -7.32 16 -8 16 C-8 13.36 -8 10.72 -8 8 C-5.36 8 -2.72 8 0 8 C0 5.36 0 2.72 0 0 Z " fill="#F82C46" transform="translate(152,144)"/>
<path d="M0 0 C0.99 0.33 1.98 0.66 3 1 C2.59007813 1.54269531 2.18015625 2.08539063 1.7578125 2.64453125 C0.94957031 3.71767578 0.94957031 3.71767578 0.125 4.8125 C-0.40867187 5.52019531 -0.94234375 6.22789063 -1.4921875 6.95703125 C-2.70814781 8.60456297 -3.86416141 10.29624211 -5 12 C-5.33 10.68 -5.66 9.36 -6 8 C-6.33 8.66 -6.66 9.32 -7 10 C-8.32 10 -9.64 10 -11 10 C-11 7.36 -11 4.72 -11 2 C-10.06027344 1.90912109 -10.06027344 1.90912109 -9.1015625 1.81640625 C-7.87566406 1.69072266 -7.87566406 1.69072266 -6.625 1.5625 C-5.81289062 1.48128906 -5.00078125 1.40007812 -4.1640625 1.31640625 C-1.95727195 1.10909886 -1.95727195 1.10909886 0 0 Z " fill="#EA0996" transform="translate(83,86)"/>
<path d="M0 0 C0.33 0.99 0.66 1.98 1 3 C1.66 3 2.32 3 3 3 C3.18451025 19.8929385 3.18451025 19.8929385 2 27 C1.34 27 0.68 27 0 27 C-1.63106796 4.89320388 -1.63106796 4.89320388 0 0 Z " fill="#E10C90" transform="translate(17,77)"/>
<path d="M0 0 C0.69895386 0.00141495 1.39790771 0.0028299 2.11804199 0.00428772 C4.31832429 0.00981955 6.51849923 0.02235848 8.71875 0.03515625 C10.22395685 0.04018009 11.72916532 0.04474143 13.234375 0.04882812 C16.89586735 0.05976648 20.55729817 0.07698266 24.21875 0.09765625 C24.21875 0.42765625 24.21875 0.75765625 24.21875 1.09765625 C20.58875 1.09765625 16.95875 1.09765625 13.21875 1.09765625 C13.21875 1.75765625 13.21875 2.41765625 13.21875 3.09765625 C9.88543561 3.12703063 6.55215517 3.14457959 3.21875 3.16015625 C2.28417969 3.16853516 1.34960938 3.17691406 0.38671875 3.18554688 C-5.10399401 3.20474517 -10.34991481 2.91107555 -15.78125 2.09765625 C-15.78125 1.76765625 -15.78125 1.43765625 -15.78125 1.09765625 C-10.46917752 0.35096902 -5.3770361 -0.0216816 0 0 Z " fill="#9A1AEF" transform="translate(111.78125,4.90234375)"/>
<path d="M0 0 C6.39074507 3.06223201 10.77084551 7.30986486 15 13 C15 13.66 15 14.32 15 15 C12.69 15 10.38 15 8 15 C8 12.36 8 9.72 8 7 C5.36 7.33 2.72 7.66 0 8 C0 5.36 0 2.72 0 0 Z " fill="#D006BD" transform="translate(144,65)"/>
<path d="M0 0 C0.33 0.99 0.66 1.98 1 3 C-0.65 3 -2.3 3 -4 3 C-4.33 5.31 -4.66 7.62 -5 10 C-5.99 10 -6.98 10 -8 10 C-8.33 11.32 -8.66 12.64 -9 14 C-9.99 13.67 -10.98 13.34 -12 13 C-12.99 14.485 -12.99 14.485 -14 16 C-14.66 15.67 -15.32 15.34 -16 15 C-15.43704212 9.93337905 -11.71886609 7.39287424 -7.9609375 4.34765625 C-2.33455882 0 -2.33455882 0 0 0 Z " fill="#F9F4F8" transform="translate(45,26)"/>
<path d="M0 0 C5.28 0 10.56 0 16 0 C10.34210526 4.52631579 10.34210526 4.52631579 6.875 5.75 C6.21242187 5.99234375 5.54984375 6.2346875 4.8671875 6.484375 C3 7 3 7 0 7 C0 4.69 0 2.38 0 0 Z " fill="#FA4139" transform="translate(128,160)"/>
<path d="M0 0 C0.66 0.66 1.32 1.32 2 2 C4.58354218 2.16687448 4.58354218 2.16687448 7 2 C7.268125 2.94875 7.53625 3.8975 7.8125 4.875 C8.74986588 8.25267273 8.74986588 8.25267273 12 10 C12 10.99 12 11.98 12 13 C7.68381834 13 6.07210341 10.86729652 3 8 C3 7.34 3 6.68 3 6 C2.360625 5.731875 1.72125 5.46375 1.0625 5.1875 C-1 4 -1 4 -2 1 C-1.34 0.67 -0.68 0.34 0 0 Z " fill="#FBF7ED" transform="translate(31,184)"/>
<path d="M0 0 C0.66 1.32 1.32 2.64 2 4 C1.01 4.495 1.01 4.495 0 5 C0.165 5.886875 0.33 6.77375 0.5 7.6875 C0.92995757 10.53596892 1.08441035 13.13004802 1 16 C1.99 15.67 2.98 15.34 4 15 C4 17.97 4 20.94 4 24 C2.68 24 1.36 24 0 24 C-1.64826111 21.03312999 -2.44271087 18.34373475 -3 15 C-2.67 15 -2.34 15 -2 15 C-2.02320313 14.25234375 -2.04640625 13.5046875 -2.0703125 12.734375 C-2.08835938 11.74953125 -2.10640625 10.7646875 -2.125 9.75 C-2.15980469 8.28820312 -2.15980469 8.28820312 -2.1953125 6.796875 C-1.99862781 3.9803502 -1.44568916 2.39050964 0 0 Z " fill="#C603D0" transform="translate(219,48)"/>
<path d="M0 0 C0 0.66 0 1.32 0 2 C0.66 2.33 1.32 2.66 2 3 C-8.57872322 8.79311033 -22.25102228 7.14809636 -34 7 C-34 6.67 -34 6.34 -34 6 C-32.69546875 5.90203125 -31.3909375 5.8040625 -30.046875 5.703125 C-20.9757346 4.95139222 -12.65207064 4.11709257 -4.1171875 0.8046875 C-2 0 -2 0 0 0 Z " fill="#F9E7D1" transform="translate(190,217)"/>
<path d="M0 0 C0.66 0.33 1.32 0.66 2 1 C2.02689216 2.47906892 2.04634621 3.95827483 2.0625 5.4375 C2.07410156 6.26121094 2.08570313 7.08492187 2.09765625 7.93359375 C2 10 2 10 1 11 C-0.99958364 11.04080783 -3.00045254 11.04254356 -5 11 C-5.6875 9.3125 -5.6875 9.3125 -6 7 C-4.35923508 3.55439366 -3.21487558 2.14325038 0 0 Z " fill="#F81065" transform="translate(150,125)"/>
<path d="M0 0 C2.64 0 5.28 0 8 0 C8.02725341 1.7290774 8.04650987 3.45828176 8.0625 5.1875 C8.07410156 6.15042969 8.08570313 7.11335938 8.09765625 8.10546875 C8.00486622 10.85576513 7.62111685 13.32479591 7 16 C5.37785503 13.56678254 4.4610293 11.80961447 3.5 9.125 C2.38590939 6.059837 1.22770294 3.02203801 0 0 Z " fill="#E703A2" transform="translate(144,88)"/>
<path d="M0 0 C0.33 0 0.66 0 1 0 C1 2.64 1 5.28 1 8 C1.66 8 2.32 8 3 8 C3 5.36 3 2.72 3 0 C3.99 0 4.98 0 6 0 C6 2.64 6 5.28 6 8 C5.34 8 4.68 8 4 8 C4 10.64 4 13.28 4 16 C2.68 16 1.36 16 0 16 C0 10.72 0 5.44 0 0 Z " fill="#F8442B" transform="translate(2,128)"/>
<path d="M0 0 C0.66 0.33 1.32 0.66 2 1 C1.67 8.59 1.34 16.18 1 24 C1.66 24 2.32 24 3 24 C3.16682272 28.92127034 3.24828052 32.50343896 1 37 C0.34 37 -0.32 37 -1 37 C-0.67 24.79 -0.34 12.58 0 0 Z " fill="#F30284" transform="translate(205,112)"/>
<path d="M0 0 C1.98 0 3.96 0 6 0 C7.06528748 2.73019786 7.07998186 3.79298812 6.00390625 6.578125 C5.52824219 7.45984375 5.05257812 8.3415625 4.5625 9.25 C4.08941406 10.14203125 3.61632812 11.0340625 3.12890625 11.953125 C2.75636719 12.62859375 2.38382813 13.3040625 2 14 C1.34 14 0.68 14 0 14 C0 9.38 0 4.76 0 0 Z " fill="#F90A73" transform="translate(160,128)"/>
<path d="M0 0 C0.33 0 0.66 0 1 0 C1 10.56 1 21.12 1 32 C-1.43343532 28.34984701 -1.44174028 25.36288097 -1.625 21.125 C-1.66367187 20.41730469 -1.70234375 19.70960937 -1.7421875 18.98046875 C-1.93316304 15.31783074 -2.04314552 11.6673691 -2 8 C-1.34 8 -0.68 8 0 8 C0 5.36 0 2.72 0 0 Z " fill="#F21F54" transform="translate(19,96)"/>
<path d="M0 0 C2.97 0 5.94 0 9 0 C9 0.66 9 1.32 9 2 C9.680625 1.67 10.36125 1.34 11.0625 1 C14.50840238 -0.17307315 17.38397422 -0.14180493 21 0 C19.68000515 2.63998971 18.63086688 2.70014976 15.875 3.625 C11.72529737 4.94626532 8.32795771 5.27625262 4 5 C4 4.34 4 3.68 4 3 C2.68 2.67 1.36 2.34 0 2 C0 1.34 0 0.68 0 0 Z " fill="#F8530E" transform="translate(168,216)"/>
<path d="M0 0 C2.97 0.33 5.94 0.66 9 1 C3.46826951 4.68782032 -2.83226447 4.29116422 -9.29296875 4.60546875 C-12.40639251 4.77423378 -15.0255583 5.00851943 -18 6 C-18.99 5.34 -19.98 4.68 -21 4 C-16.29538677 2.13867327 -12.1242304 1.7490504 -7.125 1.875 C-6.09246094 1.88853516 -6.09246094 1.88853516 -5.0390625 1.90234375 C-3.35922162 1.92567487 -1.67956254 1.96153674 0 2 C0 1.34 0 0.68 0 0 Z " fill="#8D2BF5" transform="translate(79,16)"/>
<path d="M0 0 C0 0.66 0 1.32 0 2 C1.98 1.67 3.96 1.34 6 1 C6 2.65 6 4.3 6 6 C3.79072956 5.7155186 1.58261021 5.4220904 -0.625 5.125 C-1.85476562 4.96257813 -3.08453125 4.80015625 -4.3515625 4.6328125 C-7.73961517 4.04516311 -10.77698651 3.18011878 -14 2 C-14 1.67 -14 1.34 -14 1 C-12.04175306 0.83232136 -10.08339945 0.66588795 -8.125 0.5 C-6.48917969 0.36078125 -6.48917969 0.36078125 -4.8203125 0.21875 C-3.21670436 0.09437042 -1.60842449 0 0 0 Z " fill="#B112EA" transform="translate(170,18)"/>
<path d="M0 0 C7.92 0 15.84 0 24 0 C24 0.66 24 1.32 24 2 C16.41 2.33 8.82 2.66 1 3 C0.67 2.01 0.34 1.02 0 0 Z " fill="#FBBB04" transform="translate(80,205)"/>
<path d="M0 0 C0.99 0 1.98 0 3 0 C3.02684679 2.64590014 3.04676357 5.29153096 3.0625 7.9375 C3.07087891 8.69224609 3.07925781 9.44699219 3.08789062 10.22460938 C3.09652441 12.14994313 3.05224333 14.07535581 3 16 C2.67 16.33 2.34 16.66 2 17 C1.63239269 19.32817964 1.29758419 21.6618385 1 24 C0.67 24 0.34 24 0 24 C0 16.08 0 8.16 0 0 Z " fill="#E401AF" transform="translate(205,88)"/>
<path d="M0 0 C0.99 0 1.98 0 3 0 C3.33 0.99 3.66 1.98 4 3 C4.33 2.34 4.66 1.68 5 1 C5.66 1 6.32 1 7 1 C6.01 6.94 5.02 12.88 4 19 C3.67 19 3.34 19 3 19 C2.814375 17.14375 2.814375 17.14375 2.625 15.25 C2.32751436 12.78819851 2.07963803 11.15459148 0.9375 8.9375 C-0.485096 5.99746826 -0.12341781 3.20886305 0 0 Z " fill="#B115C2" transform="translate(16,53)"/>
<path d="M0 0 C4.13937592 3.30015998 7.58662205 6.17324411 10 11 C9.01 12.485 9.01 12.485 8 14 C6.0625 13.25 6.0625 13.25 4 12 C3.1875 10 3.1875 10 3 8 C3.33 7.34 3.66 6.68 4 6 C3.01 5.67 2.02 5.34 1 5 C0.34 4.01 -0.32 3.02 -1 2 C-0.67 1.34 -0.34 0.68 0 0 Z " fill="#F7F9FA" transform="translate(134,82)"/>
<path d="M0 0 C0 0.33 0 0.66 0 1 C-2.31 1.66 -4.62 2.32 -7 3 C-7 3.66 -7 4.32 -7 5 C-11.00952575 6.33650858 -14.82016197 6.20225023 -19 6 C-19.66 5.34 -20.32 4.68 -21 4 C-18.81613582 3.32151792 -16.62769916 2.6577449 -14.4375 2 C-13.21933594 1.62875 -12.00117187 1.2575 -10.74609375 0.875 C-7.02076651 0.00485057 -3.80934051 -0.15688404 0 0 Z " fill="#CC1DCC" transform="translate(111,55)"/>
<path d="M0 0 C2.22909871 -0.02714735 4.45829367 -0.04646254 6.6875 -0.0625 C7.92886719 -0.07410156 9.17023438 -0.08570313 10.44921875 -0.09765625 C13.46235454 -0.01478673 16.08275339 0.29160551 19 1 C19.33 1.99 19.66 2.98 20 4 C14.06 4 8.12 4 2 4 C3.32 3.67 4.64 3.34 6 3 C6 2.34 6 1.68 6 1 C4.02 1 2.04 1 0 1 C0 0.67 0 0.34 0 0 Z " fill="#FA6C09" transform="translate(146,204)"/>
<path d="M0 0 C0.66 0 1.32 0 2 0 C1.67 1.32 1.34 2.64 1 4 C0.67 4 0.34 4 0 4 C-0.061875 4.78375 -0.12375 5.5675 -0.1875 6.375 C-0.455625 7.24125 -0.72375 8.1075 -1 9 C-3.5625 10.3125 -3.5625 10.3125 -6 11 C-6 10.34 -6 9.68 -6 9 C-6.66 8.67 -7.32 8.34 -8 8 C-7.34 6.02 -6.68 4.04 -6 2 C-4.35 2 -2.7 2 -1 2 C-0.67 1.34 -0.34 0.68 0 0 Z " fill="#F9184C" transform="translate(206,174)"/>
<path d="M0 0 C2.64 0 5.28 0 8 0 C7.855625 0.53625 7.71125 1.0725 7.5625 1.625 C6.90546252 4.39915827 6.44780052 7.18525388 6 10 C5.67 9.34 5.34 8.68 5 8 C3.68 8 2.36 8 1 8 C0.67 5.36 0.34 2.72 0 0 Z " fill="#F81A51" transform="translate(56,120)"/>
<path d="M0 0 C2 3 2 3 1.875 5.5625 C1 8 1 8 -0.75 9.375 C-3.4981783 10.13838286 -5.27958849 9.75566986 -8 9 C-7.44295272 5.76912579 -6.66812465 3.97638863 -4 2 C-2.68 2 -1.36 2 0 2 C0 1.34 0 0.68 0 0 Z " fill="#9520ED" transform="translate(15,30)"/>
<path d="M0 0 C0.33 0.66 0.66 1.32 1 2 C2.65 1.67 4.3 1.34 6 1 C6.0825 1.763125 6.165 2.52625 6.25 3.3125 C6.73816412 6.1358843 6.73816412 6.1358843 9.0625 7.5 C9.701875 7.995 10.34125 8.49 11 9 C11.25 11.6875 11.25 11.6875 11 14 C6.47384007 10.32167983 2.60575001 6.58913637 -1 2 C-0.67 1.34 -0.34 0.68 0 0 Z " fill="#F9EFF0" transform="translate(81,130)"/>
<path d="M0 0 C0.33 0 0.66 0 1 0 C1.33951619 1.56116819 1.67132544 3.12401338 2 4.6875 C2.185625 5.55761719 2.37125 6.42773438 2.5625 7.32421875 C2.98972047 9.93712964 3.07616201 12.35813038 3 15 C1.68 15.33 0.36 15.66 -1 16 C-1.36552803 14.58622218 -1.71695495 13.16879424 -2.0625 11.75 C-2.25972656 10.96109375 -2.45695312 10.1721875 -2.66015625 9.359375 C-3.01497267 6.89605178 -2.76877544 5.34395868 -2 3 C-1.34 3 -0.68 3 0 3 C0 2.01 0 1.02 0 0 Z " fill="#F92357" transform="translate(75,117)"/>
<path d="M0 0 C1.48828125 0.98828125 1.48828125 0.98828125 3 3 C3.21714241 5.81127043 3.28284276 8.3883345 3.1875 11.1875 C3.17396484 11.93708984 3.16042969 12.68667969 3.14648438 13.45898438 C3.11118539 15.30629767 3.05737917 17.15324066 3 19 C2.01 19 1.02 19 0 19 C-1.27603607 15.17189179 -0.86283987 11.76524893 -0.5625 7.8125 C-0.51029297 7.06291016 -0.45808594 6.31332031 -0.40429688 5.54101562 C-0.27486216 3.69362918 -0.13813482 1.84675629 0 0 Z " fill="#CB07BC" transform="translate(18,61)"/>
<path d="M0 0 C0.66 0.33 1.32 0.66 2 1 C2 1.66 2 2.32 2 3 C3.98 3 5.96 3 8 3 C7.34 3.66 6.68 4.32 6 5 C6.99 5.33 7.98 5.66 9 6 C9.33 5.34 9.66 4.68 10 4 C10 6.64 10 9.28 10 12 C4.79857016 9.55226831 2.17811135 5.59788619 -1 1 C-0.67 0.67 -0.34 0.34 0 0 Z " fill="#F6AB21" transform="translate(14,197)"/>
<path d="M0 0 C0 2.64 0 5.28 0 8 C-1.11375 7.979375 -2.2275 7.95875 -3.375 7.9375 C-6.83215921 7.73619282 -6.83215921 7.73619282 -9 9 C-9.66 8.34 -10.32 7.68 -11 7 C-2.55172414 0 -2.55172414 0 0 0 Z " fill="#F62059" transform="translate(144,136)"/>
<path d="M0 0 C2.86066046 4.29099069 2.51312609 8.39455807 1.546875 13.30078125 C1.07184604 15.21107628 0.54078068 17.10726762 0 19 C-0.33 19 -0.66 19 -1 19 C-1.33 13.72 -1.66 8.44 -2 3 C-1.34 3 -0.68 3 0 3 C0 2.01 0 1.02 0 0 Z " fill="#F53835" transform="translate(18,125)"/>
<path d="M0 0 C2.31 0 4.62 0 7 0 C5.5140084 4.59306496 3.14985318 7.43569245 0 11 C-1.26026798 8.47946405 -0.91874445 7.1457902 -0.5625 4.375 C-0.46066406 3.55773437 -0.35882813 2.74046875 -0.25390625 1.8984375 C-0.17011719 1.27195313 -0.08632812 0.64546875 0 0 Z " fill="#F81C37" transform="translate(208,192)"/>
<path d="M0 0 C1.65 0.33 3.3 0.66 5 1 C5 1.99 5 2.98 5 4 C5.99 4.66 6.98 5.32 8 6 C1.59370576 6.20852314 -3.92972642 6.1583195 -10 4 C-10 3.67 -10 3.34 -10 3 C-7.98177083 3.09765625 -5.96354167 3.1953125 -3.9453125 3.29296875 C-3.30335937 3.19628906 -2.66140625 3.09960938 -2 3 C-1.34 2.01 -0.68 1.02 0 0 Z " fill="#FCE9E4" transform="translate(109,144)"/>
<path d="M0 0 C6.0844657 -0.22535058 12.19391467 -0.01810029 18 2 C18.99 3.485 18.99 3.485 20 5 C17.41626766 4.69055299 14.83304867 4.37756043 12.25 4.0625 C11.52039063 3.97548828 10.79078125 3.88847656 10.0390625 3.79882812 C6.62415558 3.37972591 3.32396457 2.882726 0 2 C0 1.34 0 0.68 0 0 Z " fill="#B118F0" transform="translate(156,1)"/>
<path d="M0 0 C2 3 2 3 2 5 C0.02 5.66 -1.96 6.32 -4 7 C-4.33 8.98 -4.66 10.96 -5 13 C-5.66 13 -6.32 13 -7 13 C-7.33 12.67 -7.66 12.34 -8 12 C-8.99 12 -9.98 12 -11 12 C-10.04882866 10.8274869 -9.08882991 9.66212985 -8.125 8.5 C-7.32449219 7.52546875 -7.32449219 7.52546875 -6.5078125 6.53125 C-6.01023438 6.0259375 -5.51265625 5.520625 -5 5 C-4.34 5 -3.68 5 -3 5 C-2.690625 4.360625 -2.38125 3.72125 -2.0625 3.0625 C-1 1 -1 1 0 0 Z " fill="#F9E4E6" transform="translate(158,147)"/>
<path d="M0 0 C1.65 0 3.3 0 5 0 C5 2.97 5 5.94 5 9 C3.35 8.67 1.7 8.34 0 8 C0 5.33333333 0 2.66666667 0 0 Z " fill="#E801A3" transform="translate(67,79)"/>
<path d="M0 0 C4.58328022 -0.05802751 9.16646604 -0.09360593 13.75 -0.125 C15.05195313 -0.14175781 16.35390625 -0.15851562 17.6953125 -0.17578125 C18.94570312 -0.18222656 20.19609375 -0.18867187 21.484375 -0.1953125 C22.63647461 -0.20578613 23.78857422 -0.21625977 24.97558594 -0.22705078 C27.89892966 -0.00758762 29.53732509 0.47271878 32 2 C28.97209252 2.64883732 26.5093632 3.08696445 23.4375 2.5625 C18.84247292 1.81058648 14.27221957 1.63969714 9.625 1.4375 C8.69816406 1.39431641 7.77132812 1.35113281 6.81640625 1.30664062 C4.54439706 1.20123814 2.27229075 1.09911394 0 1 C0 0.67 0 0.34 0 0 Z " fill="#F5E9FA" transform="translate(144,0)"/>
<path d="M0 0 C1.65 0 3.3 0 5 0 C4.67 2.31 4.34 4.62 4 7 C1.36 7.33 -1.28 7.66 -4 8 C-3.34 7.67 -2.68 7.34 -2 7 C-2.66 5.68 -3.32 4.36 -4 3 C-2.68 3 -1.36 3 0 3 C0 2.01 0 1.02 0 0 Z " fill="#FB7F09" transform="translate(156,216)"/>
<path d="M0 0 C1 3 1 3 -0.5625 6.375 C-2.1482378 9.00311089 -3.79084778 10.83962504 -6.1875 12.75 C-9.22172472 14.75975535 -9.22172472 14.75975535 -10 18 C-11.32 17.34 -12.64 16.68 -14 16 C-12.4840625 14.824375 -12.4840625 14.824375 -10.9375 13.625 C-6.3681994 9.74575704 -3.24650647 4.99310722 0 0 Z " fill="#F6EBE4" transform="translate(214,194)"/>
<path d="M0 0 C5.61 0 11.22 0 17 0 C17 0.33 17 0.66 17 1 C15.7934375 1.185625 15.7934375 1.185625 14.5625 1.375 C13.716875 1.58125 12.87125 1.7875 12 2 C11.67 2.66 11.34 3.32 11 4 C7.37 4 3.74 4 0 4 C0 2.68 0 1.36 0 0 Z " fill="#FB9217" transform="translate(128,204)"/>
<path d="M0 0 C-0.33 4.29 -0.66 8.58 -1 13 C-1.66 13 -2.32 13 -3 13 C-5.67927341 8.98108988 -5.15601248 6.75838077 -5 2 C-1.125 0 -1.125 0 0 0 Z " fill="#C50EB6" transform="translate(6,67)"/>
<path d="M0 0 C2.97 0 5.94 0 9 0 C6.90900184 4.18199633 6.00681267 4.99659367 2 7 C1.34 7 0.68 7 0 7 C0 4.69 0 2.38 0 0 Z " fill="#F93A1F" transform="translate(192,208)"/>
<path d="M0 0 C0.98120464 3.05263664 0.98120464 4.94736336 0 8 C-0.66 8 -1.32 8 -2 8 C-2.12375 8.598125 -2.2475 9.19625 -2.375 9.8125 C-3 12 -3 12 -5 15 C-5 11.37 -5 7.74 -5 4 C-4.34 4 -3.68 4 -3 4 C-2.67 3.01 -2.34 2.02 -2 1 C-1.34 1.33 -0.68 1.66 0 2 C0 1.34 0 0.68 0 0 Z " fill="#F80468" transform="translate(221,156)"/>
<path d="M0 0 C4.95 0 9.9 0 15 0 C15 1.32 15 2.64 15 4 C4.44191344 4.18451025 4.44191344 4.18451025 0 3 C0 2.01 0 1.02 0 0 Z " fill="#CA07C7" transform="translate(89,60)"/>
<path d="M0 0 C4.12751449 0.60698743 7.3321148 2.03810791 11 4 C10.34 5.32 9.68 6.64 9 8 C8.67 7.34 8.34 6.68 8 6 C6.0085944 5.61866701 4.00720923 5.28674418 2 5 C1.34 4.67 0.68 4.34 0 4 C0 2.68 0 1.36 0 0 Z " fill="#F8F2F5" transform="translate(176,25)"/>
<path d="M0 0 C3.36591427 2.72478774 4.44226276 6.06856792 6 10 C5.01 10.33 4.02 10.66 3 11 C2.67 11.66 2.34 12.32 2 13 C2.66 13.33 3.32 13.66 4 14 C3.01 14 2.02 14 1 14 C0.83081732 12.41693353 0.66476064 10.83353281 0.5 9.25 C0.4071875 8.36828125 0.314375 7.4865625 0.21875 6.578125 C0 4 0 4 0 0 Z " fill="#FA940C" transform="translate(24,178)"/>
<path d="M0 0 C3.63 1.65 7.26 3.3 11 5 C7.13506838 7.57662108 4.56985872 7 0 7 C-0.66 5.68 -1.32 4.36 -2 3 C-1.34 2.01 -0.68 1.02 0 0 Z " fill="#F7F5EE" transform="translate(82,161)"/>
<path d="M0 0 C0.33 0.99 0.66 1.98 1 3 C2.32 3 3.64 3 5 3 C5 4.32 5 5.64 5 7 C4.34 7 3.68 7 3 7 C3 8.32 3 9.64 3 11 C1.68 11 0.36 11 -1 11 C-0.67 7.37 -0.34 3.74 0 0 Z " fill="#FCE5F0" transform="translate(169,117)"/>
<path d="M0 0 C0.33 3.3 0.66 6.6 1 10 C-0.65 10 -2.3 10 -4 10 C-4 7.03 -4 4.06 -4 1 C-1 0 -1 0 0 0 Z " fill="#ED0583" transform="translate(63,94)"/>
<path d="M0 0 C0.99 0 1.98 0 3 0 C2.64947365 3.15473719 2.13480924 4.8233534 0.1875 7.375 C-0.534375 7.91125 -1.25625 8.4475 -2 9 C-4.13671875 8.6015625 -4.13671875 8.6015625 -6 8 C-5.07456291 6.65826597 -4.13422595 5.32679841 -3.1875 4 C-2.66542969 3.2575 -2.14335938 2.515 -1.60546875 1.75 C-0.81076172 0.88375 -0.81076172 0.88375 0 0 Z " fill="#F5F1F8" transform="translate(85,87)"/>
<path d="M0 0 C0.66 0 1.32 0 2 0 C4.14336161 3.4766338 4.21277626 6.21229195 4.125 10.25 C4.10695312 11.32765625 4.08890625 12.4053125 4.0703125 13.515625 C4.04710937 14.33546875 4.02390625 15.1553125 4 16 C3.67 16 3.34 16 3 16 C3 13.03 3 10.06 3 7 C2.34 7 1.68 7 1 7 C0.67 7.99 0.34 8.98 0 10 C-1.125 3.375 -1.125 3.375 0 0 Z " fill="#CE26DC" transform="translate(220,56)"/>
<path d="M0 0 C2.31 0 4.62 0 7 0 C6.67 0.99 6.34 1.98 6 3 C5.01 2.67 4.02 2.34 3 2 C3.45822468 5.46941546 3.89131683 8.67395049 5 12 C4.34 12 3.68 12 3 12 C2.67 13.32 2.34 14.64 2 16 C1.34 10.72 0.68 5.44 0 0 Z " fill="#C50CE0" transform="translate(201,48)"/>
<path d="M0 0 C0.33 0 0.66 0 1 0 C1.33 1.65 1.66 3.3 2 5 C2.33 5 2.66 5 3 5 C2.55066068 9.67312888 1.98090266 12.38775335 -1 16 C-1.02685095 13.52076199 -1.04676547 11.0418116 -1.0625 8.5625 C-1.07506836 7.50192383 -1.07506836 7.50192383 -1.08789062 6.41992188 C-1.09653588 4.61306441 -1.05220011 2.80612397 -1 1 C-0.67 0.67 -0.34 0.34 0 0 Z " fill="#F8144F" transform="translate(217,174)"/>
<path d="M0 0 C2.31 0 4.62 0 7 0 C6.67 1.98 6.34 3.96 6 6 C4.02 6.33 2.04 6.66 0 7 C0 4.69 0 2.38 0 0 Z " fill="#E602A5" transform="translate(80,80)"/>
<path d="M0 0 C2.97 0 5.94 0 9 0 C8.67 1.98 8.34 3.96 8 6 C4.65750371 5.40312566 2.53563658 4.26396123 0 2 C0 1.34 0 0.68 0 0 Z " fill="#FA5126" transform="translate(72,152)"/>
<path d="M0 0 C0.33 0 0.66 0 1 0 C1 4.62 1 9.24 1 14 C0.34 14 -0.32 14 -1 14 C-1.33 14.66 -1.66 15.32 -2 16 C-2.05449838 14.27119018 -2.09301688 12.54187288 -2.125 10.8125 C-2.14820312 9.84957031 -2.17140625 8.88664062 -2.1953125 7.89453125 C-1.9913544 4.87187222 -1.26874632 2.73230015 0 0 Z " fill="#F80963" transform="translate(74,106)"/>
<path d="M0 0 C0.33 0 0.66 0 1 0 C2.59162079 5.57067277 3.20674944 10.21101581 3 16 C2.67 16 2.34 16 2 16 C2 14.35 2 12.7 2 11 C1.34 11 0.68 11 0 11 C-0.33 12.65 -0.66 14.3 -1 16 C-2.22602512 12.32192463 -1.70295577 10.11756073 -1.0625 6.3125 C-0.86785156 5.13300781 -0.67320313 3.95351562 -0.47265625 2.73828125 C-0.31667969 1.83464844 -0.16070313 0.93101562 0 0 Z " fill="#F87506" transform="translate(18,160)"/>
<path d="M0 0 C-1 3 -1 3 -3.25 4.1875 C-5.99791147 4.99938294 -8.15447889 5.16260121 -11 5 C-10.34 4.67 -9.68 4.34 -9 4 C-8.67 3.01 -8.34 2.02 -8 1 C-5.04059045 -1.0409721 -3.36242374 -1.20086562 0 0 Z " fill="#FA2445" transform="translate(136,145)"/>
<path d="M0 0 C2.35119399 3.52679099 2.21443452 5.02879485 2.125 9.1875 C2.10695313 10.27417969 2.08890625 11.36085938 2.0703125 12.48046875 C2.03550781 13.72763672 2.03550781 13.72763672 2 15 C1.01 15.33 0.02 15.66 -1 16 C-0.67 10.72 -0.34 5.44 0 0 Z " fill="#BB27CC" transform="translate(2,53)"/>
<path d="M0 0 C1.98 0 3.96 0 6 0 C7.35439668 2.70879335 7.06501451 5.00933268 7 8 C2.60841671 6.5361389 2.12052567 4.02168662 0 0 Z " fill="#F8422F" transform="translate(65,144)"/>
<path d="M0 0 C1.2065625 0.0309375 1.2065625 0.0309375 2.4375 0.0625 C1.5625 3.9375 1.5625 3.9375 0.4375 5.0625 C-1.08178038 5.13429964 -2.60417482 5.14642007 -4.125 5.125 C-4.95128906 5.11597656 -5.77757813 5.10695313 -6.62890625 5.09765625 C-7.26699219 5.08605469 -7.90507813 5.07445313 -8.5625 5.0625 C-7.758125 4.423125 -6.95375 3.78375 -6.125 3.125 C-2.3125 0.05640244 -2.3125 0.05640244 0 0 Z " fill="#D804BF" transform="translate(82.5625,66.9375)"/>
<path d="M0 0 C0.66 -0.33 1.32 -0.66 2 -1 C2 0.65 2 2.3 2 4 C2.66 4 3.32 4 4 4 C3.67 4.66 3.34 5.32 3 6 C-3.75 3.375 -3.75 3.375 -6 0 C-3.4791665 -1.26041675 -2.64903564 -0.66225891 0 0 Z " fill="#FAB30F" transform="translate(30,209)"/>
<path d="M0 0 C2.475 0.495 2.475 0.495 5 1 C5 1.66 5 2.32 5 3 C5.66 3.33 6.32 3.66 7 4 C7.70381157 5.98723268 8.3711811 7.98777953 9 10 C9.33 10.33 9.66 10.66 10 11 C10.04063832 12.66617115 10.042721 14.33388095 10 16 C7.68576197 12.52864295 5.57101052 8.95929768 3.4375 5.375 C2.33627071 3.5555777 1.17970055 1.76955082 0 0 Z " fill="#E0199D" transform="translate(139,86)"/>
<path d="M0 0 C0.66 0.33 1.32 0.66 2 1 C1.505 1.433125 1.01 1.86625 0.5 2.3125 C-1.33218192 3.99740483 -1.33218192 3.99740483 -1 7 C-2.32 7 -3.64 7 -5 7 C-4.67 7.99 -4.34 8.98 -4 10 C-4.99 9.67 -5.98 9.34 -7 9 C-7.33 8.01 -7.66 7.02 -8 6 C-5.36 4.02 -2.72 2.04 0 0 Z " fill="#F7E8F4" transform="translate(96,78)"/>
<path d="M0 0 C0 0.99 0 1.98 0 3 C-13.6332574 3.18451025 -13.6332574 3.18451025 -20 2 C-20 1.67 -20 1.34 -20 1 C-19.19175781 1.01160156 -18.38351563 1.02320313 -17.55078125 1.03515625 C-16.48214844 1.04417969 -15.41351563 1.05320313 -14.3125 1.0625 C-12.72888672 1.07990234 -12.72888672 1.07990234 -11.11328125 1.09765625 C-7.3189226 0.97863622 -3.78757131 0 0 0 Z " fill="#FAD638" transform="translate(72,221)"/>
<path d="M0 0 C0.66 0 1.32 0 2 0 C2 1.98 2 3.96 2 6 C-0.97 5.67 -3.94 5.34 -7 5 C-5 2 -5 2 -2.9375 1.375 C-2.298125 1.25125 -1.65875 1.1275 -1 1 C-0.67 0.67 -0.34 0.34 0 0 Z " fill="#F93526" transform="translate(190,194)"/>
<path d="M0 0 C0.99 0 1.98 0 3 0 C3 2.64 3 5.28 3 8 C2.34 8 1.68 8 1 8 C1 10.64 1 13.28 1 16 C0.67 16 0.34 16 0 16 C0 10.72 0 5.44 0 0 Z " fill="#FB3836" transform="translate(5,128)"/>
<path d="M0 0 C2.475 0.99 2.475 0.99 5 2 C4.34 4.64 3.68 7.28 3 10 C2.34 9.67 1.68 9.34 1 9 C1 7.68 1 6.36 1 5 C0.34 5 -0.32 5 -1 5 C-0.67 3.35 -0.34 1.7 0 0 Z " fill="#F32655" transform="translate(3,115)"/>
<path d="M0 0 C0.66 0 1.32 0 2 0 C3.3271261 3.9813783 3.06915913 7.85045227 3 12 C2.01 12 1.02 12 0 12 C0 8.04 0 4.08 0 0 Z " fill="#EA1E69" transform="translate(2,104)"/>
<path d="M0 0 C1.258125 0.12375 2.51625 0.2475 3.8125 0.375 C4.87404297 0.47941406 4.87404297 0.47941406 5.95703125 0.5859375 C8 1 8 1 11 3 C11.1875 5.625 11.1875 5.625 11 8 C9.16399255 6.85845641 7.33125195 5.71165684 5.5 4.5625 C4.4790625 3.92441406 3.458125 3.28632812 2.40625 2.62890625 C1.6121875 2.09136719 0.818125 1.55382812 0 1 C0 0.67 0 0.34 0 0 Z " fill="#DB17AA" transform="translate(128,78)"/>
<path d="M0 0 C0 0.99 0 1.98 0 3 C-3.3821626 6.14619777 -6.84765429 8.92382715 -11 11 C-11.66 10.67 -12.32 10.34 -13 10 C-11.21024844 8.51851668 -9.41813943 7.03988094 -7.625 5.5625 C-6.62726563 4.73878906 -5.62953125 3.91507812 -4.6015625 3.06640625 C-2 1 -2 1 0 0 Z " fill="#CB19BE" transform="translate(83,63)"/>
<path d="M0 0 C0.33 0 0.66 0 1 0 C1.02701408 2.10409639 1.04640223 4.20829178 1.0625 6.3125 C1.07410156 7.48425781 1.08570313 8.65601562 1.09765625 9.86328125 C1 13 1 13 0 16 C-0.66 16 -1.32 16 -2 16 C-2.625 13.125 -2.625 13.125 -3 10 C-2.34 9.34 -1.68 8.68 -1 8 C-0.54188325 6.02764667 -0.54188325 6.02764667 -0.375 3.875 C-0.25125 2.59625 -0.1275 1.3175 0 0 Z " fill="#F8D8ED" transform="translate(149,106)"/>
<path d="M0 0 C4.42857143 5.14285714 4.42857143 5.14285714 5 9 C4.01 9.66 3.02 10.32 2 11 C0 9 0 9 -0.1953125 6.8359375 C-0.17210937 6.02382812 -0.14890625 5.21171875 -0.125 4.375 C-0.10695312 3.55773437 -0.08890625 2.74046875 -0.0703125 1.8984375 C-0.04710937 1.27195312 -0.02390625 0.64546875 0 0 Z " fill="#DE11B0" transform="translate(160,81)"/>
<path d="M0 0 C0 0.33 0 0.66 0 1 C-0.64066406 1.04898438 -1.28132813 1.09796875 -1.94140625 1.1484375 C-6.08730569 1.50680139 -9.97558345 1.86969514 -13.9375 3.1875 C-15.4534375 3.5896875 -15.4534375 3.5896875 -17 4 C-17.99 3.34 -18.98 2.68 -20 2 C-13.38190423 -0.46254726 -6.99560484 -0.18935472 0 0 Z " fill="#F7CFF2" transform="translate(119,75)"/>
<path d="M0 0 C0.33 0 0.66 0 1 0 C1 4.29 1 8.58 1 13 C-0.32 12.67 -1.64 12.34 -3 12 C-3 10.68 -3 9.36 -3 8 C-2.34 8 -1.68 8 -1 8 C-0.67 5.36 -0.34 2.72 0 0 Z " fill="#FA4721" transform="translate(19,136)"/>
<path d="M0 0 C0.33 0 0.66 0 1 0 C1 5.28 1 10.56 1 16 C0.01 15.67 -0.98 15.34 -2 15 C-2 12.69 -2 10.38 -2 8 C-1.34 8 -0.68 8 0 8 C0 5.36 0 2.72 0 0 Z " fill="#E90F6B" transform="translate(19,96)"/>
<path d="M0 0 C1.22589844 0.01353516 1.22589844 0.01353516 2.4765625 0.02734375 C3.41628906 0.04474609 3.41628906 0.04474609 4.375 0.0625 C1.6889714 1.85318573 -0.2876589 2.72305791 -3.3125 3.6875 C-4.12074219 3.94789062 -4.92898437 4.20828125 -5.76171875 4.4765625 C-6.37660156 4.66992188 -6.99148437 4.86328125 -7.625 5.0625 C-7.25 3.125 -7.25 3.125 -6.625 1.0625 C-4.21954362 -0.14022819 -2.67503047 -0.03821472 0 0 Z " fill="#F8ECFA" transform="translate(91.625,56.9375)"/>
<path d="M0 0 C2.475 0.495 2.475 0.495 5 1 C5 1.66 5 2.32 5 3 C5.66 3 6.32 3 7 3 C7 3.66 7 4.32 7 5 C8.65 5.33 10.3 5.66 12 6 C11.67 6.99 11.34 7.98 11 9 C6.90784086 6.71320518 3.50049752 4.09346293 0 1 C0 0.67 0 0.34 0 0 Z " fill="#FBF3F3" transform="translate(200,14)"/>
<path d="M0 0 C5.28 0.33 10.56 0.66 16 1 C16 1.33 16 1.66 16 2 C7.585 2.495 7.585 2.495 -1 3 C-0.67 2.01 -0.34 1.02 0 0 Z " fill="#FD9D01" transform="translate(120,205)"/>
<path d="M0 0 C1.32 0 2.64 0 4 0 C4.33 0.99 4.66 1.98 5 3 C5.99 3.33 6.98 3.66 8 4 C8 4.66 8 5.32 8 6 C2.06 4.515 2.06 4.515 -4 3 C-2.68 2.67 -1.36 2.34 0 2 C0 1.34 0 0.68 0 0 Z " fill="#F7E9F6" transform="translate(180,1)"/>
<path d="M0 0 C0.33 0 0.66 0 1 0 C1 2.31 1 4.62 1 7 C0.01 7.33 -0.98 7.66 -2 8 C-2 10.64 -2 13.28 -2 16 C-2.33 16 -2.66 16 -3 16 C-3 12.04 -3 8.08 -3 4 C-2.34 3.67 -1.68 3.34 -1 3 C-0.67 2.01 -0.34 1.02 0 0 Z " fill="#F03447" transform="translate(7,120)"/>
<path d="M0 0 C0 3 0 3 -1 5 C-4.0625 5.625 -4.0625 5.625 -7 6 C-7 5.34 -7 4.68 -7 4 C-7.99 3.67 -8.98 3.34 -10 3 C-5.05 1.515 -5.05 1.515 0 0 Z " fill="#FAEBF9" transform="translate(180,63)"/>
<path d="M0 0 C0.66 0.99 1.32 1.98 2 3 C1.3203125 5.48046875 1.3203125 5.48046875 0.125 8.1875 C-0.26429687 9.08855469 -0.65359375 9.98960938 -1.0546875 10.91796875 C-1.36664063 11.60503906 -1.67859375 12.29210938 -2 13 C-2.66 12.67 -3.32 12.34 -4 12 C-3.67 9.03 -3.34 6.06 -3 3 C-2.34 3 -1.68 3 -1 3 C-0.67 2.01 -0.34 1.02 0 0 Z " fill="#F4E7F9" transform="translate(7,32)"/>
<path d="M0 0 C0 0.66 0 1.32 0 2 C-5.29230769 5.07692308 -5.29230769 5.07692308 -8.875 4.6875 C-9.57625 4.460625 -10.2775 4.23375 -11 4 C-10 2 -10 2 -8.22265625 1.3671875 C-7.50980469 1.20476562 -6.79695313 1.04234375 -6.0625 0.875 C-5.35222656 0.70742187 -4.64195313 0.53984375 -3.91015625 0.3671875 C-2 0 -2 0 0 0 Z " fill="#FC3B4C" transform="translate(127,147)"/>
<path d="M0 0 C0.598125 0.165 1.19625 0.33 1.8125 0.5 C4.11344336 1.1114124 4.11344336 1.1114124 7 1 C5.95125002 3.62187494 5.35068687 4.79371361 2.875 6.25 C2.25625 6.4975 1.6375 6.745 1 7 C1 5 1 5 2 4 C1.34 3.34 0.68 2.68 0 2 C0 1.34 0 0.68 0 0 Z " fill="#F31A56" transform="translate(152,144)"/>
<path d="M0 0 C0.33 0 0.66 0 1 0 C1.33 5.28 1.66 10.56 2 16 C1.01 16 0.02 16 -1 16 C-0.67 10.72 -0.34 5.44 0 0 Z " fill="#F64E21" transform="translate(6,136)"/>
<path d="M0 0 C2.64 1.98 5.28 3.96 8 6 C7.34 6.66 6.68 7.32 6 8 C5.34 7.67 4.68 7.34 4 7 C3.67 7.66 3.34 8.32 3 9 C2.71125 8.030625 2.4225 7.06125 2.125 6.0625 C1.35785318 2.89335797 1.35785318 2.89335797 -1 2 C-0.67 1.34 -0.34 0.68 0 0 Z " fill="#F53941" transform="translate(85,138)"/>
<path d="M0 0 C1.74627478 2.61941217 2.38722388 4.03824877 3 7 C1.35 7 -0.3 7 -2 7 C-2.6875 5.1875 -2.6875 5.1875 -3 3 C-1.5625 1.25 -1.5625 1.25 0 0 Z " fill="#F5F0FB" transform="translate(197,41)"/>
<path d="M0 0 C0.66 0 1.32 0 2 0 C2 2.31 2 4.62 2 7 C1.01 7.33 0.02 7.66 -1 8 C-1 7.34 -1 6.68 -1 6 C-1.99 5.67 -2.98 5.34 -4 5 C-2.71937515 3.2925002 -1.38232443 1.62626404 0 0 Z " fill="#F71E3A" transform="translate(198,183)"/>
<path d="M0 0 C1.32 0.33 2.64 0.66 4 1 C4.33 2.65 4.66 4.3 5 6 C3.35 6.33 1.7 6.66 0 7 C0 4.69 0 2.38 0 0 Z " fill="#F7432B" transform="translate(128,160)"/>
<path d="M0 0 C0.66 0.33 1.32 0.66 2 1 C0.68 3.64 -0.64 6.28 -2 9 C-2.66 9 -3.32 9 -4 9 C-4 7.35 -4 5.7 -4 4 C-2.68 3.34 -1.36 2.68 0 2 C0 1.34 0 0.68 0 0 Z " fill="#F81069" transform="translate(164,133)"/>
<path d="M0 0 C1.12894876 0.93274109 2.25300876 1.87140122 3.375 2.8125 C4.00148437 3.33457031 4.62796875 3.85664062 5.2734375 4.39453125 C7 6 7 6 9 9 C4.57499041 7.32567205 1.69929224 6.04893836 -1 2 C-0.67 1.34 -0.34 0.68 0 0 Z " fill="#F6E9F6" transform="translate(134,82)"/>
<path d="M0 0 C0 0.66 0 1.32 0 2 C0.66 2.33 1.32 2.66 2 3 C-0.64 3.99 -3.28 4.98 -6 6 C-6 5.34 -6 4.68 -6 4 C-6.66 3.34 -7.32 2.68 -8 2 C-2.25 0 -2.25 0 0 0 Z " fill="#FCEAE3" transform="translate(190,217)"/>
<path d="M0 0 C0.99 0 1.98 0 3 0 C3 2.64 3 5.28 3 8 C2.01 8 1.02 8 0 8 C0 5.36 0 2.72 0 0 Z " fill="#DC01BA" transform="translate(205,88)"/>
<path d="M0 0 C0.33 0.66 0.66 1.32 1 2 C1.66 2 2.32 2 3 2 C3.33 1.34 3.66 0.68 4 0 C5.5 1.375 5.5 1.375 7 3 C7 3.66 7 4.32 7 5 C4.69 5 2.38 5 0 5 C0 3.35 0 1.7 0 0 Z " fill="#D907B2" transform="translate(152,75)"/>
<path d="M0 0 C0.66 0 1.32 0 2 0 C1.67 1.65 1.34 3.3 1 5 C0.360625 5.12375 -0.27875 5.2475 -0.9375 5.375 C-1.9584375 5.684375 -1.9584375 5.684375 -3 6 C-3.33 6.66 -3.66 7.32 -4 8 C-4.66 7.67 -5.32 7.34 -6 7 C-5.04882866 5.8274869 -4.08882991 4.66212985 -3.125 3.5 C-2.59132813 2.8503125 -2.05765625 2.200625 -1.5078125 1.53125 C-0.76144531 0.77328125 -0.76144531 0.77328125 0 0 Z " fill="#DC11B2" transform="translate(70,74)"/>
<path d="M0 0 C2.5 2.25 2.5 2.25 5 5 C5 6.32 5 7.64 5 9 C3.0625 8.4375 3.0625 8.4375 1 7 C0.25 3.375 0.25 3.375 0 0 Z " fill="#F6E2FB" transform="translate(190,32)"/>
<path d="M0 0 C1.32 0 2.64 0 4 0 C2.70700306 2.88437779 1.34058637 4.87219421 -1 7 C-1.625 4.625 -1.625 4.625 -2 2 C-1.34 1.34 -0.68 0.68 0 0 Z " fill="#9122E3" transform="translate(28,34)"/>
<path d="M0 0 C0.99 0 1.98 0 3 0 C2.67 3.63 2.34 7.26 2 11 C-0.67927341 6.98108988 -0.15601248 4.75838077 0 0 Z " fill="#F86624" transform="translate(1,152)"/>
<path d="M0 0 C-1.65 1.98 -3.3 3.96 -5 6 C-5.33 5.34 -5.66 4.68 -6 4 C-6.66 3.67 -7.32 3.34 -8 3 C-8 2.34 -8 1.68 -8 1 C-3.375 -1.125 -3.375 -1.125 0 0 Z " fill="#E9159D" transform="translate(86,87)"/>
<path d="M0 0 C0.66 0 1.32 0 2 0 C1.38461538 5.53846154 1.38461538 5.53846154 -0.5625 7.875 C-1.2740625 8.431875 -1.2740625 8.431875 -2 9 C-2.66 8.67 -3.32 8.34 -4 8 C-3.40312566 4.65750371 -2.26396123 2.53563658 0 0 Z " fill="#F5E8F9" transform="translate(33,33)"/>
<path d="M0 0 C-0.33 1.32 -0.66 2.64 -1 4 C-2.65 4.33 -4.3 4.66 -6 5 C-6.33 3.68 -6.66 2.36 -7 1 C-4.53721199 -0.231394 -2.7204945 -0.07159196 0 0 Z " fill="#C00CEF" transform="translate(217,34)"/>
<path d="M0 0 C0.98120464 3.05263664 0.98120464 4.94736336 0 8 C-3 6 -3 6 -3.6875 3.875 C-3.790625 3.25625 -3.89375 2.6375 -4 2 C-2.68 2 -1.36 2 0 2 C0 1.34 0 0.68 0 0 Z " fill="#F9AC12" transform="translate(23,201)"/>
<path d="M0 0 C0.66 0.33 1.32 0.66 2 1 C2 2.32 2 3.64 2 5 C1.34 5 0.68 5 0 5 C-0.33 5.99 -0.66 6.98 -1 8 C-1.33 8 -1.66 8 -2 8 C-2 5.69 -2 3.38 -2 1 C-1.34 0.67 -0.68 0.34 0 0 Z " fill="#F40779" transform="translate(74,101)"/>
<path d="M0 0 C1.98 1.65 3.96 3.3 6 5 C5.34 6.65 4.68 8.3 4 10 C2.05731159 7.08596738 0.53604696 4.14191424 -1 1 C-0.67 0.67 -0.34 0.34 0 0 Z " fill="#F8E6F6" transform="translate(162,81)"/>
<path d="M0 0 C2.67927341 4.01891012 2.15601248 6.24161923 2 11 C1.34 11 0.68 11 0 11 C-1.125 3.375 -1.125 3.375 0 0 Z " fill="#D20EA1" transform="translate(17,77)"/>
<path d="M0 0 C1.2065625 0.0309375 1.2065625 0.0309375 2.4375 0.0625 C1.7775 2.0425 1.1175 4.0225 0.4375 6.0625 C-0.5525 6.0625 -1.5425 6.0625 -2.5625 6.0625 C-2.94468767 4.40635343 -3.27645102 2.73792976 -3.5625 1.0625 C-2.5625 0.0625 -2.5625 0.0625 0 0 Z " fill="#DF03AA" transform="translate(69.5625,78.9375)"/>
<path d="M0 0 C3.87302138 1.14430177 7.00263439 2.23320098 10 5 C10 5.66 10 6.32 10 7 C9.01 7 8.02 7 7 7 C7 6.01 7 5.02 7 4 C6.01 4.33 5.02 4.66 4 5 C4 4.34 4 3.68 4 3 C2.68 2.34 1.36 1.68 0 1 C0 0.67 0 0.34 0 0 Z " fill="#AC0DE5" transform="translate(188,8)"/>
<path d="M0 0 C0 0.99 0 1.98 0 3 C-3.69541586 3.95024979 -6.30458414 3.95024979 -10 3 C-6.71687741 1.24118433 -3.76143005 0 0 0 Z " fill="#FB6132" transform="translate(178,200)"/>
<path d="M0 0 C4.75 0.875 4.75 0.875 7 2 C7 2.66 7 3.32 7 4 C4.36 3.67 1.72 3.34 -1 3 C-0.67 2.01 -0.34 1.02 0 0 Z " fill="#F8A01E" transform="translate(27,188)"/>
<path d="M0 0 C0.33 0 0.66 0 1 0 C2.25 6.625 2.25 6.625 0 10 C-1.76462683 6.91190305 -2 5.76687864 -2 2 C-1.34 2 -0.68 2 0 2 C0 1.34 0 0.68 0 0 Z " fill="#F6921F" transform="translate(7,178)"/>
<path d="M0 0 C0.33 0 0.66 0 1 0 C1 2.64 1 5.28 1 8 C1.66 8.33 2.32 8.66 3 9 C2.01 9.99 1.02 10.98 0 12 C-0.66 11.67 -1.32 11.34 -2 11 C-1.34 7.37 -0.68 3.74 0 0 Z " fill="#F3D6F5" transform="translate(185,50)"/>
<path d="M0 0 C2.97 0 5.94 0 9 0 C8.67 0.99 8.34 1.98 8 3 C5.36 2.67 2.72 2.34 0 2 C0 1.34 0 0.68 0 0 Z " fill="#F6610D" transform="translate(168,216)"/>
<path d="M0 0 C3.10551666 3.10551666 3.81323934 4.89198233 5 9 C4.01 9 3.02 9 2 9 C1.34 6.03 0.68 3.06 0 0 Z " fill="#F88D16" transform="translate(24,178)"/>
<path d="M0 0 C0.33 0.66 0.66 1.32 1 2 C0.34 2 -0.32 2 -1 2 C-1 2.66 -1 3.32 -1 4 C-0.34 4.33 0.32 4.66 1 5 C-0.65 6.32 -2.3 7.64 -4 9 C-4.33 7.68 -4.66 6.36 -5 5 C-4.01 5 -3.02 5 -2 5 C-2 3.68 -2 2.36 -2 1 C-1.34 0.67 -0.68 0.34 0 0 Z " fill="#FA2B58" transform="translate(154,147)"/>
<path d="M0 0 C0.99 0 1.98 0 3 0 C3 0.66 3 1.32 3 2 C3.99 2.33 4.98 2.66 6 3 C6 3.66 6 4.32 6 5 C5 6 5 6 2 7 C1.34 4.69 0.68 2.38 0 0 Z " fill="#F3FBFA" transform="translate(90,137)"/>
<path d="M0 0 C3.77545388 1.09068668 6.47043472 1.9083091 9 5 C7.35 5.33 5.7 5.66 4 6 C3.67 5.01 3.34 4.02 3 3 C2.01 2.67 1.02 2.34 0 2 C0 1.34 0 0.68 0 0 Z " fill="#F8E6F8" transform="translate(124,77)"/>
<path d="M0 0 C0.66 1.32 1.32 2.64 2 4 C1.01 4.495 1.01 4.495 0 5 C0.33 6.98 0.66 8.96 1 11 C-0.5625 9.8125 -0.5625 9.8125 -2 8 C-1.71263151 5.12631508 -0.91403285 2.74209856 0 0 Z " fill="#CA02E6" transform="translate(219,48)"/>
<path d="M0 0 C0.66 0 1.32 0 2 0 C2.33 2.64 2.66 5.28 3 8 C2.01 8 1.02 8 0 8 C0 5.36 0 2.72 0 0 Z " fill="#FA811F" transform="translate(21,168)"/>
<path d="M0 0 C2.125 0.9375 2.125 0.9375 4 2 C3.67 2.66 3.34 3.32 3 4 C1.02 4 -0.96 4 -3 4 C-2.67 3.01 -2.34 2.02 -2 1 C-1.34 0.67 -0.68 0.34 0 0 Z " fill="#FBF2ED" transform="translate(74,156)"/>
<path d="M0 0 C1.70884005 1.62339805 3.37446717 3.29319053 5 5 C5 5.66 5 6.32 5 7 C3.68 7.33 2.36 7.66 1 8 C-0.35439668 5.29120665 -0.06501451 2.99066732 0 0 Z " fill="#F9EDE6" transform="translate(64,144)"/>
<path d="M0 0 C1.98 1.65 3.96 3.3 6 5 C5.67 5.99 5.34 6.98 5 8 C4.34 8 3.68 8 3 8 C2.67 6.35 2.34 4.7 2 3 C1.34 3 0.68 3 0 3 C0 2.01 0 1.02 0 0 Z " fill="#D226C3" transform="translate(150,69)"/>
<path d="M0 0 C0.99 0.33 1.98 0.66 3 1 C2.01 1.495 2.01 1.495 1 2 C1 2.99 1 3.98 1 5 C-1.64 5.33 -4.28 5.66 -7 6 C-3.25 4 -3.25 4 -1 4 C-0.67 2.68 -0.34 1.36 0 0 Z " fill="#C30AC3" transform="translate(177,60)"/>
<path d="M0 0 C0.66 0 1.32 0 2 0 C1.67 1.65 1.34 3.3 1 5 C1.66 5 2.32 5 3 5 C2.67 6.98 2.34 8.96 2 11 C-0.32590854 7.36576791 -0.16265833 4.22911669 0 0 Z " fill="#B810D5" transform="translate(16,53)"/>
<path d="M0 0 C-0.33 4.29 -0.66 8.58 -1 13 C-1.33 13 -1.66 13 -2 13 C-2.33 9.04 -2.66 5.08 -3 1 C-1 0 -1 0 0 0 Z " fill="#FAE9FB" transform="translate(3,48)"/>
<path d="M0 0 C1.32 0 2.64 0 4 0 C4.125 2.875 4.125 2.875 4 6 C3.34 6.66 2.68 7.32 2 8 C1.34 5.36 0.68 2.72 0 0 Z " fill="#F5EBF5" transform="translate(216,32)"/>
<path d="M0 0 C-0.99 0.33 -1.98 0.66 -3 1 C-3.99 2.485 -3.99 2.485 -5 4 C-6.32 3.34 -7.64 2.68 -9 2 C-5.945634 -1.054366 -3.9532319 -1.22686507 0 0 Z " fill="#F0E3F8" transform="translate(55,24)"/>
<path d="M0 0 C2.31 1.65 4.62 3.3 7 5 C5.02 5.99 5.02 5.99 3 7 C2.67 5.68 2.34 4.36 2 3 C1.34 3 0.68 3 0 3 C0 2.01 0 1.02 0 0 Z " fill="#B121F0" transform="translate(198,13)"/>
<path d="M0 0 C0 0.33 0 0.66 0 1 C-5.89893243 2.79074734 -9.93179132 3.08360869 -16 2 C-16 1.67 -16 1.34 -16 1 C-10.59255982 0.22750855 -5.46137814 -0.09752461 0 0 Z " fill="#941DFB" transform="translate(112,5)"/>
<path d="M0 0 C2.64 0 5.28 0 8 0 C8 0.66 8 1.32 8 2 C2.25 3.125 2.25 3.125 0 2 C0 1.34 0 0.68 0 0 Z " fill="#F7A804" transform="translate(112,205)"/>
<path d="M0 0 C1.5625 1.8125 1.5625 1.8125 3 4 C2.67 4.99 2.34 5.98 2 7 C1.01 6.67 0.02 6.34 -1 6 C-1.042721 4.33388095 -1.04063832 2.66617115 -1 1 C-0.67 0.67 -0.34 0.34 0 0 Z " fill="#FBA203" transform="translate(33,192)"/>
<path d="M0 0 C0.99 0.33 1.98 0.66 3 1 C2.67 2.32 2.34 3.64 2 5 C1.34 5 0.68 5 0 5 C-0.33 4.67 -0.66 4.34 -1 4 C-1.99 4 -2.98 4 -4 4 C-2.68 2.68 -1.36 1.36 0 0 Z " fill="#F7F1F0" transform="translate(151,155)"/>
<path d="M0 0 C0.33 1.32 0.66 2.64 1 4 C1.66 4 2.32 4 3 4 C3 5.98 3 7.96 3 10 C1.5 8.9375 1.5 8.9375 0 7 C-0.1875 3.3125 -0.1875 3.3125 0 0 Z " fill="#F8333E" transform="translate(61,132)"/>
<path d="M0 0 C0.66 0.33 1.32 0.66 2 1 C2 2.65 2 4.3 2 6 C1.01 6 0.02 6 -1 6 C-1.625 4.125 -1.625 4.125 -2 2 C-1.34 1.34 -0.68 0.68 0 0 Z " fill="#F40A6E" transform="translate(150,125)"/>
<path d="M0 0 C1.65 0.33 3.3 0.66 5 1 C3.35 2.65 1.7 4.3 0 6 C-1.125 2.25 -1.125 2.25 0 0 Z " fill="#E317AA" transform="translate(87,80)"/>
<path d="M0 0 C2.31 0.33 4.62 0.66 7 1 C6.67 2.32 6.34 3.64 6 5 C1.125 2.25 1.125 2.25 0 0 Z " fill="#C81ACB" transform="translate(161,60)"/>
<path d="M0 0 C4.455 0.99 4.455 0.99 9 2 C9 2.99 9 3.98 9 5 C4.89198233 3.81323934 3.10551666 3.10551666 0 0 Z " fill="#F8C42D" transform="translate(31,214)"/>
<path d="M0 0 C-0.25 1.875 -0.25 1.875 -1 4 C-3.0625 5.25 -3.0625 5.25 -5 6 C-4.625 3.5625 -4.625 3.5625 -4 1 C-2 0 -2 0 0 0 Z " fill="#F9EBEB" transform="translate(136,139)"/>
<path d="M0 0 C0.33 0.66 0.66 1.32 1 2 C1.99 2.33 2.98 2.66 4 3 C2.68 3.99 1.36 4.98 0 6 C-0.66 4.68 -1.32 3.36 -2 2 C-1.34 1.34 -0.68 0.68 0 0 Z " fill="#F9E4F6" transform="translate(66,72)"/>
</svg>
